<svg width="24" height="24" viewBox="0 0 24 24" fill="none" xmlns="http://www.w3.org/2000/svg">
<mask id="mask0_23_923" style="mask-type:alpha" maskUnits="userSpaceOnUse" x="0" y="0" width="24" height="24">
<rect width="24" height="24" fill="#D9D9D9"/>
</mask>
<g mask="url(#mask0_23_923)">
<path d="M12 22C10.75 22 9.57917 21.7625 8.48751 21.2875C7.39584 20.8125 6.44584 20.1708 5.63751 19.3625C4.82917 18.5541 4.18751 17.6041 3.71251 16.5125C3.23751 15.4208 3.00001 14.25 3.00001 13C3.00001 11.75 3.23751 10.5791 3.71251 9.48748C4.18751 8.39581 4.82917 7.44581 5.63751 6.63748C6.44584 5.82914 7.39584 5.18748 8.48751 4.71248C9.57917 4.23748 10.75 3.99998 12 3.99998C13.25 3.99998 14.4208 4.23748 15.5125 4.71248C16.6042 5.18748 17.5542 5.82914 18.3625 6.63748C19.1708 7.44581 19.8125 8.39581 20.2875 9.48748C20.7625 10.5791 21 11.75 21 13C21 14.25 20.7625 15.4208 20.2875 16.5125C19.8125 17.6041 19.1708 18.5541 18.3625 19.3625C17.5542 20.1708 16.6042 20.8125 15.5125 21.2875C14.4208 21.7625 13.25 22 12 22ZM14.8 17.2L16.2 15.8L13 12.6V7.99998H11V13.4L14.8 17.2ZM5.60001 2.34998L7.00001 3.74998L2.75001 7.99998L1.35001 6.59998L5.60001 2.34998ZM18.4 2.34998L22.65 6.59998L21.25 7.99998L17 3.74998L18.4 2.34998ZM12 20C13.95 20 15.6042 19.3208 16.9625 17.9625C18.3208 16.6041 19 14.95 19 13C19 11.05 18.3208 9.39581 16.9625 8.03748C15.6042 6.67914 13.95 5.99998 12 5.99998C10.05 5.99998 8.39584 6.67914 7.03751 8.03748C5.67917 9.39581 5.00001 11.05 5.00001 13C5.00001 14.95 5.67917 16.6041 7.03751 17.9625C8.39584 19.3208 10.05 20 12 20Z" fill="#1C1B1F"/>
</g>
</svg>
