<svg width="25" height="24" viewBox="0 0 25 24" fill="none" xmlns="http://www.w3.org/2000/svg">
<path d="M22.5 12C22.5 6.47757 18.0224 2 12.5 2C6.97757 2 2.5 6.47757 2.5 12C2.5 16.9909 6.15631 21.1281 10.9376 21.8791V14.8913H8.39791V12H10.9376V9.79637C10.9376 7.2904 12.4311 5.90522 14.7149 5.90522C15.809 5.90522 16.9537 6.10069 16.9537 6.10069V8.56167H15.6922C14.4505 8.56167 14.0624 9.3323 14.0624 10.124V12H16.8355L16.3926 14.8913H14.0624V21.8791C18.8437 21.1295 22.5 16.9923 22.5 12Z" fill="#1977F3"/>
<path d="M16.3931 14.8912L16.8361 12H14.0629V10.124C14.0629 9.33366 14.4496 8.56162 15.6928 8.56162H16.9542V6.10064C16.9542 6.10064 15.8095 5.90517 14.7154 5.90517C12.4316 5.90517 10.9382 7.28894 10.9382 9.79632V12H8.39844V14.8912H10.9382V21.879C11.4472 21.9592 11.969 22 12.5005 22C13.0321 22 13.5538 21.9578 14.0629 21.879V14.8912H16.3931Z" fill="#FEFEFE"/>
</svg>
