<svg width="25" height="24" viewBox="0 0 25 24" fill="none" xmlns="http://www.w3.org/2000/svg">
<path d="M7.48916 13.8775L6.86261 16.2165L4.57258 16.2649C3.88819 14.9956 3.5 13.5432 3.5 11.9999C3.5 10.5075 3.86295 9.1001 4.50631 7.86089H4.5068L6.54557 8.23466L7.43868 10.2612C7.25175 10.8062 7.14987 11.3912 7.14987 11.9999C7.14994 12.6605 7.26961 13.2935 7.48916 13.8775Z" fill="#FBBB00"/>
<path d="M21.3431 10.3184C21.4465 10.8628 21.5003 11.425 21.5003 11.9997C21.5003 12.644 21.4326 13.2725 21.3035 13.8788C20.8654 15.9419 19.7206 17.7433 18.1348 19.0182L18.1343 19.0177L15.5663 18.8866L15.2029 16.6178C16.2552 16.0007 17.0776 15.0349 17.5108 13.8788H12.6982V10.3184H17.581H21.3431Z" fill="#518EF8"/>
<path d="M18.1335 19.0183L18.134 19.0188C16.5917 20.2585 14.6324 21.0002 12.4996 21.0002C9.07225 21.0002 6.09238 19.0845 4.57227 16.2654L7.48885 13.8779C8.24889 15.9064 10.2056 17.3503 12.4996 17.3503C13.4857 17.3503 14.4094 17.0838 15.2021 16.6185L18.1335 19.0183Z" fill="#28B446"/>
<path d="M18.2442 5.07196L15.3286 7.45892C14.5082 6.94613 13.5384 6.64991 12.4995 6.64991C10.1536 6.64991 8.16023 8.16011 7.43826 10.2613L4.50635 7.86096H4.50586C6.00372 4.97307 9.02117 3 12.4995 3C14.6832 3 16.6855 3.77786 18.2442 5.07196Z" fill="#F14336"/>
</svg>
