<svg width="24" height="24" viewBox="0 0 24 24" fill="none" xmlns="http://www.w3.org/2000/svg">
<rect width="24" height="24" rx="12" fill="white"/>
<rect x="1.5" y="1.5" width="21" height="21" rx="10.5" stroke="black" stroke-opacity="0.15" stroke-width="3"/>
<mask id="mask0_47_1997" style="mask-type:alpha" maskUnits="userSpaceOnUse" x="1" y="1" width="22" height="22">
<rect x="1" y="1" width="22" height="22" fill="#D9D9D9"/>
</mask>
<g mask="url(#mask0_47_1997)">
<path d="M6.49999 13.8333C5.99582 13.8333 5.56423 13.6538 5.2052 13.2948C4.84617 12.9357 4.66666 12.5041 4.66666 12C4.66666 11.4958 4.84617 11.0642 5.2052 10.7052C5.56423 10.3461 5.99582 10.1666 6.49999 10.1666C7.00416 10.1666 7.43575 10.3461 7.79478 10.7052C8.15381 11.0642 8.33332 11.4958 8.33332 12C8.33332 12.5041 8.15381 12.9357 7.79478 13.2948C7.43575 13.6538 7.00416 13.8333 6.49999 13.8333ZM12 13.8333C11.4958 13.8333 11.0642 13.6538 10.7052 13.2948C10.3462 12.9357 10.1667 12.5041 10.1667 12C10.1667 11.4958 10.3462 11.0642 10.7052 10.7052C11.0642 10.3461 11.4958 10.1666 12 10.1666C12.5042 10.1666 12.9358 10.3461 13.2948 10.7052C13.6538 11.0642 13.8333 11.4958 13.8333 12C13.8333 12.5041 13.6538 12.9357 13.2948 13.2948C12.9358 13.6538 12.5042 13.8333 12 13.8333ZM17.5 13.8333C16.9958 13.8333 16.5642 13.6538 16.2052 13.2948C15.8462 12.9357 15.6667 12.5041 15.6667 12C15.6667 11.4958 15.8462 11.0642 16.2052 10.7052C16.5642 10.3461 16.9958 10.1666 17.5 10.1666C18.0042 10.1666 18.4358 10.3461 18.7948 10.7052C19.1538 11.0642 19.3333 11.4958 19.3333 12C19.3333 12.5041 19.1538 12.9357 18.7948 13.2948C18.4358 13.6538 18.0042 13.8333 17.5 13.8333Z" fill="black" fill-opacity="0.15"/>
</g>
</svg>
