<svg width="32" height="32" viewBox="0 0 32 32" fill="none" xmlns="http://www.w3.org/2000/svg">
<rect width="32" height="32" rx="16" fill="#07B977"/>
<path d="M12.7876 10.4114C13.3323 8.91682 15.5349 8.87155 16.1808 10.2756L16.2354 10.4122L16.9705 12.4277C17.139 12.89 17.4112 13.3129 17.7689 13.6681C18.1265 14.0233 18.5613 14.3025 19.0438 14.4868L19.2414 14.556L21.3912 15.2443C22.9853 15.755 23.0336 17.8201 21.5369 18.4256L21.3912 18.4768L19.2414 19.166C18.7482 19.3239 18.2969 19.5791 17.9179 19.9144C17.5389 20.2497 17.241 20.6573 17.0443 21.1098L16.9705 21.2943L16.2363 23.3106C15.6916 24.8052 13.489 24.8505 12.8441 23.4473L12.7876 23.3106L12.0534 21.2951C11.885 20.8327 11.6128 20.4096 11.2552 20.0542C10.8975 19.6989 10.4627 19.4196 9.98015 19.2352L9.78339 19.166L7.63363 18.4777C6.03861 17.967 5.99033 15.9019 7.48788 15.2973L7.63363 15.2443L9.78339 14.556C10.2764 14.398 10.7276 14.1428 11.1064 13.8075C11.4853 13.4722 11.783 13.0646 11.9796 12.6122L12.0534 12.4277L12.7876 10.4114ZM14.512 10.9631L13.7778 12.9786C13.5212 13.6834 13.1039 14.3274 12.5549 14.8656C12.0058 15.4038 11.3383 15.8233 10.5987 16.0949L10.3709 16.1727L8.22117 16.861L10.3709 17.5494C11.1227 17.7899 11.8095 18.1811 12.3836 18.6959C12.9576 19.2106 13.4051 19.8365 13.6949 20.5299L13.7778 20.7434L14.512 22.7589L15.2462 20.7434C15.5027 20.0386 15.92 19.3947 16.469 18.8564C17.0181 18.3182 17.6856 17.8987 18.4253 17.6271L18.653 17.5502L20.8027 16.861L18.653 16.1727C17.9012 15.9322 17.2144 15.5409 16.6403 15.0262C16.0663 14.5114 15.6188 13.8855 15.329 13.1921L15.2471 12.9786L14.512 10.9631ZM21.7993 7.46667C21.9697 7.46667 22.1367 7.51149 22.2813 7.59604C22.4259 7.68058 22.5423 7.80146 22.6173 7.94493L22.661 8.04485L22.9798 8.92109L23.9153 9.22C24.0861 9.2744 24.2358 9.3751 24.3455 9.50936C24.4552 9.64361 24.5199 9.80537 24.5314 9.97412C24.5429 10.1429 24.5007 10.311 24.4102 10.4573C24.3196 10.6036 24.1848 10.7213 24.0228 10.7957L23.9153 10.8367L22.9807 11.1356L22.6619 12.0127C22.6038 12.1727 22.4963 12.313 22.3531 12.4158C22.2098 12.5185 22.0373 12.5791 21.8573 12.5898C21.6773 12.6005 21.4979 12.5608 21.342 12.4759C21.186 12.3909 21.0605 12.2645 20.9813 12.1126L20.9376 12.0127L20.6187 11.1364L19.6832 10.8375C19.5124 10.7831 19.3627 10.6824 19.2531 10.5482C19.1434 10.4139 19.0787 10.2522 19.0672 10.0834C19.0557 9.91465 19.0979 9.74648 19.1884 9.60022C19.2789 9.45397 19.4137 9.3362 19.5757 9.26185L19.6832 9.22085L20.6178 8.92194L20.9366 8.04485C20.9981 7.87612 21.1143 7.72964 21.269 7.62595C21.4237 7.52226 21.6091 7.46657 21.7993 7.46667Z" fill="#DCEEF9"/>
</svg>
