<svg width="64" height="64" viewBox="0 0 64 64" fill="none" xmlns="http://www.w3.org/2000/svg">
<circle cx="32" cy="32" r="32" fill="#07B977"/>
<path d="M40.6266 38.44L41.1466 42.6533C41.28 43.7599 40.0933 44.5333 39.1466 43.9599L33.56 40.6399C32.9466 40.6399 32.3466 40.6 31.76 40.52C32.7466 39.36 33.3333 37.8933 33.3333 36.3066C33.3333 32.5199 30.0533 29.4533 26 29.4533C24.4533 29.4533 23.0266 29.8933 21.84 30.6666C21.8 30.3333 21.7866 29.9999 21.7866 29.6533C21.7866 23.5866 27.0533 18.6666 33.56 18.6666C40.0666 18.6666 45.3333 23.5866 45.3333 29.6533C45.3333 33.2533 43.48 36.44 40.6266 38.44Z" stroke="white" stroke-width="2" stroke-linecap="round" stroke-linejoin="round"/>
<path d="M33.3334 36.3066C33.3334 37.8933 32.7468 39.36 31.7601 40.52C30.4401 42.12 28.3467 43.1466 26.0001 43.1466L22.5201 45.2133C21.9334 45.5733 21.1867 45.08 21.2667 44.4L21.6001 41.7734C19.8134 40.5334 18.6667 38.5466 18.6667 36.3066C18.6667 33.96 19.9201 31.8933 21.8401 30.6667C23.0268 29.8933 24.4534 29.4534 26.0001 29.4534C30.0534 29.4534 33.3334 32.52 33.3334 36.3066Z" stroke="white" stroke-width="2" stroke-linecap="round" stroke-linejoin="round"/>
</svg>
