<svg width="190" height="110" viewBox="0 0 190 110" fill="none" xmlns="http://www.w3.org/2000/svg">
<g opacity="0.8">
<path d="M70.9888 109.5C100.759 109.5 124.893 85.366 124.893 55.5953C124.893 25.8246 100.759 1.69067 70.9888 1.69067C41.218 1.69067 17.0841 25.8246 17.0841 55.5953C17.0841 85.366 41.218 109.5 70.9888 109.5Z" fill="#EDFFF9"/>
<path d="M154.388 47.8568C167.491 47.8568 178.114 37.2342 178.114 24.1305C178.114 11.0269 167.491 0.404297 154.388 0.404297C141.284 0.404297 130.661 11.0269 130.661 24.1305C130.661 37.2342 141.284 47.8568 154.388 47.8568Z" fill="#EDFFF9"/>
<path d="M166.671 90.7491C166.554 90.749 166.441 90.7023 166.358 90.6192C166.275 90.536 166.228 90.4233 166.228 90.3057V52.2747H152.201C152.084 52.2747 151.971 52.228 151.888 52.1449C151.805 52.0617 151.758 51.949 151.758 51.8314V22.7802H56.3099V35.0549C56.3099 35.1725 56.2631 35.2852 56.18 35.3684C56.0969 35.4515 55.9841 35.4982 55.8666 35.4982H25.9224V56.9915H32.9174C33.0349 56.9915 33.1477 57.0382 33.2308 57.1213C33.3139 57.2045 33.3606 57.3172 33.3607 57.4348V62.1575C33.3607 62.2751 33.314 62.3879 33.2308 62.471C33.1477 62.5541 33.0349 62.6008 32.9174 62.6008C32.7998 62.6008 32.687 62.5541 32.6039 62.471C32.5208 62.3879 32.4741 62.2751 32.4741 62.1575V57.8781H25.4791C25.3615 57.878 25.2488 57.8313 25.1656 57.7482C25.0825 57.6651 25.0358 57.5523 25.0358 57.4348V35.0549C25.0358 34.9374 25.0825 34.8246 25.1656 34.7415C25.2488 34.6584 25.3615 34.6117 25.4791 34.6116H55.4233V22.3369C55.4233 22.2193 55.47 22.1066 55.5532 22.0234C55.6363 21.9403 55.749 21.8936 55.8666 21.8936H152.201C152.319 21.8936 152.432 21.9403 152.515 22.0234C152.598 22.1066 152.645 22.2193 152.645 22.3369V51.3881H166.671C166.789 51.3882 166.902 51.4349 166.985 51.518C167.068 51.6011 167.115 51.7139 167.115 51.8314V90.3057C167.115 90.4233 167.068 90.536 166.985 90.6192C166.902 90.7023 166.789 90.749 166.671 90.7491Z" fill="#A2E5DF"/>
<path d="M118.042 6.42209V38.6374C118.042 38.7752 118.015 38.9117 117.962 39.039C117.91 39.1663 117.832 39.282 117.735 39.3795C117.637 39.4769 117.522 39.5542 117.394 39.6069C117.267 39.6596 117.131 39.6868 116.993 39.6867H84.6254C84.3474 39.6859 84.0809 39.5751 83.8843 39.3785C83.6877 39.1819 83.5769 38.9154 83.576 38.6374V1.95707C83.576 1.81926 83.6031 1.68278 83.6558 1.55545C83.7086 1.42812 83.7859 1.31242 83.8833 1.21497C83.9808 1.11752 84.0965 1.04023 84.2238 0.987508C84.3511 0.934788 84.4876 0.907673 84.6254 0.907715H112.523L118.042 6.42209Z" fill="#77D8BB"/>
<path d="M94.2781 6.08423H88.4176C87.928 6.08423 87.531 6.48117 87.531 6.97083V12.8313C87.531 13.321 87.928 13.7179 88.4176 13.7179H94.2781C94.7678 13.7179 95.1647 13.321 95.1647 12.8313V6.97083C95.1647 6.48117 94.7678 6.08423 94.2781 6.08423Z" fill="white"/>
<path d="M103.739 6.08423H97.8789C97.3893 6.08423 96.9923 6.48117 96.9923 6.97083V12.8313C96.9923 13.321 97.3893 13.7179 97.8789 13.7179H103.739C104.229 13.7179 104.626 13.321 104.626 12.8313V6.97083C104.626 6.48117 104.229 6.08423 103.739 6.08423Z" fill="white"/>
<path d="M114.081 16.4055H87.531V17.5877H114.081V16.4055Z" fill="#07B977"/>
<path d="M114.081 20.2795H87.531V21.4617H114.081V20.2795Z" fill="#07B977"/>
<path d="M114.081 24.1536H87.531V25.3357H114.081V24.1536Z" fill="#07B977"/>
<path d="M114.081 28.0278H87.531V29.21H114.081V28.0278Z" fill="#07B977"/>
<path d="M114.081 31.9019H87.531V33.084H114.081V31.9019Z" fill="#07B977"/>
<path d="M114.081 35.7761H87.531V36.9583H114.081V35.7761Z" fill="#07B977"/>
<path d="M118.194 6.57424H113.047C112.978 6.57424 112.91 6.56067 112.846 6.5343C112.783 6.50793 112.725 6.46928 112.676 6.42056C112.628 6.37184 112.589 6.314 112.563 6.25035C112.536 6.18669 112.523 6.11846 112.523 6.04956V0.907715L118.042 6.42209L118.194 6.57424Z" fill="#A2E5DF"/>
<path d="M124.219 12.925V45.1403C124.219 45.2781 124.192 45.4146 124.139 45.5419C124.087 45.6692 124.009 45.7849 123.912 45.8824C123.814 45.9798 123.699 46.0571 123.571 46.1098C123.444 46.1626 123.307 46.1897 123.17 46.1897H90.8023C90.5242 46.1889 90.2578 46.078 90.0612 45.8814C89.8646 45.6848 89.7537 45.4184 89.7529 45.1403V8.46001C89.7529 8.32219 89.78 8.18572 89.8327 8.05838C89.8855 7.93105 89.9627 7.81535 90.0602 7.7179C90.1576 7.62045 90.2733 7.54316 90.4007 7.49044C90.528 7.43772 90.6645 7.4106 90.8023 7.41064H118.699L124.219 12.925Z" fill="#A2E5DF"/>
<path d="M124.371 13.0772H119.224C119.085 13.0772 118.951 13.0219 118.853 12.9235C118.755 12.8251 118.699 12.6916 118.699 12.5525V7.41064L124.219 12.925L124.371 13.0772Z" fill="#07B977"/>
<path d="M102.71 14.4294H94.7538C94.4274 14.4294 94.1627 14.6941 94.1627 15.0205V21.9187C94.1627 22.2451 94.4274 22.5097 94.7538 22.5097H102.71C103.036 22.5097 103.301 22.2451 103.301 21.9187V15.0205C103.301 14.6941 103.036 14.4294 102.71 14.4294Z" fill="white"/>
<path d="M118.699 38.804H94.3708V39.6906H118.699V38.804Z" fill="#45A37F"/>
<path d="M118.699 35.9182H94.3708V36.8048H118.699V35.9182Z" fill="#45A37F"/>
<path d="M118.699 33.0325H94.3708V33.9191H118.699V33.0325Z" fill="#45A37F"/>
<path d="M118.699 30.1462H94.3708V31.0328H118.699V30.1462Z" fill="#45A37F"/>
<path d="M118.699 27.2603H94.3708V28.1469H118.699V27.2603Z" fill="#45A37F"/>
<path d="M118.699 24.3743H94.3708V25.2609H118.699V24.3743Z" fill="#45A37F"/>
<path d="M118.699 21.4888H105.994V22.3754H118.699V21.4888Z" fill="#45A37F"/>
<path d="M118.699 18.6028H105.994V19.4894H118.699V18.6028Z" fill="#45A37F"/>
<path d="M118.699 15.7173H105.994V16.6039H118.699V15.7173Z" fill="#45A37F"/>
<path d="M112.946 89.7747H99.2565V103.465H112.946V89.7747Z" fill="#A2E5DF"/>
<path d="M99.2564 102.578V90.6613C99.2564 90.4261 99.163 90.2006 98.9967 90.0343C98.8305 89.8681 98.6049 89.7747 98.3698 89.7747H95.8873C95.6522 89.7747 95.4267 89.8681 95.2604 90.0343C95.0941 90.2006 95.0007 90.4261 95.0007 90.6613V106.834C95.0007 107.069 95.0941 107.294 95.2604 107.461C95.4267 107.627 95.6522 107.72 95.8873 107.72H112.06C112.295 107.72 112.521 107.627 112.687 107.461C112.853 107.294 112.946 107.069 112.946 106.834V104.351C112.946 104.116 112.853 103.891 112.687 103.724C112.521 103.558 112.295 103.465 112.06 103.465H100.143C100.027 103.465 99.9113 103.442 99.8037 103.397C99.6961 103.353 99.5984 103.287 99.5161 103.205C99.4337 103.123 99.3684 103.025 99.3239 102.917C99.2793 102.81 99.2564 102.694 99.2564 102.578Z" fill="#62E8A5"/>
<path d="M108.229 103.465V107.72H121.033C121.268 107.72 121.493 107.627 121.66 107.461C121.826 107.294 121.919 107.069 121.919 106.834V104.351C121.919 104.116 121.826 103.891 121.66 103.724C121.493 103.558 121.268 103.465 121.033 103.465H108.229Z" fill="#C2FFF2"/>
<path d="M146.751 102.051C155.129 102.051 161.922 95.259 161.922 86.8803C161.922 78.5015 155.129 71.7092 146.751 71.7092C138.372 71.7092 131.579 78.5015 131.579 86.8803C131.579 95.259 138.372 102.051 146.751 102.051Z" fill="#EDFFF9"/>
<path d="M36.5845 21.0133H24.8101C24.6926 21.0133 24.5798 20.9666 24.4967 20.8835C24.4135 20.8003 24.3668 20.6876 24.3668 20.57C24.3668 20.4524 24.4135 20.3397 24.4967 20.2566C24.5798 20.1734 24.6926 20.1267 24.8101 20.1267H36.5845C36.702 20.1267 36.8148 20.1734 36.8979 20.2566C36.9811 20.3397 37.0278 20.4524 37.0278 20.57C37.0278 20.6876 36.9811 20.8003 36.8979 20.8835C36.8148 20.9666 36.702 21.0133 36.5845 21.0133Z" fill="#A2E5DF"/>
<path d="M36.5845 23.9921H24.8101C24.6926 23.9921 24.5798 23.9454 24.4967 23.8622C24.4135 23.7791 24.3668 23.6663 24.3668 23.5488C24.3668 23.4312 24.4135 23.3184 24.4967 23.2353C24.5798 23.1522 24.6926 23.1055 24.8101 23.1055H36.5845C36.702 23.1055 36.8148 23.1522 36.8979 23.2353C36.9811 23.3184 37.0278 23.4312 37.0278 23.5488C37.0278 23.6663 36.9811 23.7791 36.8979 23.8622C36.8148 23.9454 36.702 23.9921 36.5845 23.9921Z" fill="#A2E5DF"/>
<path d="M36.5845 26.9713H24.8101C24.6926 26.9713 24.5798 26.9246 24.4967 26.8415C24.4135 26.7583 24.3668 26.6456 24.3668 26.528C24.3668 26.4104 24.4135 26.2977 24.4967 26.2146C24.5798 26.1314 24.6926 26.0847 24.8101 26.0847H36.5845C36.702 26.0847 36.8148 26.1314 36.8979 26.2146C36.9811 26.2977 37.0278 26.4104 37.0278 26.528C37.0278 26.6456 36.9811 26.7583 36.8979 26.8415C36.8148 26.9246 36.702 26.9713 36.5845 26.9713Z" fill="#A2E5DF"/>
<path d="M188.781 87.4572H177.007C176.889 87.4572 176.777 87.4105 176.694 87.3273C176.61 87.2442 176.564 87.1314 176.564 87.0139C176.564 86.8963 176.61 86.7835 176.694 86.7004C176.777 86.6173 176.889 86.5706 177.007 86.5706H188.781C188.899 86.5706 189.012 86.6173 189.095 86.7004C189.178 86.7835 189.225 86.8963 189.225 87.0139C189.225 87.1314 189.178 87.2442 189.095 87.3273C189.012 87.4105 188.899 87.4572 188.781 87.4572Z" fill="#A2E5DF"/>
<path d="M188.781 90.4364H177.007C176.889 90.4364 176.777 90.3897 176.694 90.3066C176.61 90.2234 176.564 90.1107 176.564 89.9931C176.564 89.8755 176.61 89.7628 176.694 89.6796C176.777 89.5965 176.889 89.5498 177.007 89.5498H188.781C188.899 89.5498 189.012 89.5965 189.095 89.6796C189.178 89.7628 189.225 89.8755 189.225 89.9931C189.225 90.1107 189.178 90.2234 189.095 90.3066C189.012 90.3897 188.899 90.4364 188.781 90.4364Z" fill="#A2E5DF"/>
<path d="M188.781 93.4154H177.007C176.889 93.4154 176.777 93.3687 176.694 93.2856C176.61 93.2024 176.564 93.0897 176.564 92.9721C176.564 92.8545 176.61 92.7418 176.694 92.6586C176.777 92.5755 176.889 92.5288 177.007 92.5288H188.781C188.899 92.5288 189.012 92.5755 189.095 92.6586C189.178 92.7418 189.225 92.8545 189.225 92.9721C189.225 93.0897 189.178 93.2024 189.095 93.2856C189.012 93.3687 188.899 93.4154 188.781 93.4154Z" fill="#A2E5DF"/>
<path d="M138.294 35.7324H63.1101C62.1308 35.7324 61.3369 36.5263 61.3369 37.5056V90.957C61.3369 91.9363 62.1308 92.7302 63.1101 92.7302H138.294C139.273 92.7302 140.067 91.9363 140.067 90.957V37.5056C140.067 36.5263 139.273 35.7324 138.294 35.7324Z" fill="#62E8A5"/>
<path d="M138.294 93.1732H63.1101C62.5224 93.1725 61.959 92.9388 61.5435 92.5233C61.1279 92.1077 60.8942 91.5443 60.8936 90.9567V37.5053C60.8942 36.9177 61.1279 36.3543 61.5435 35.9387C61.959 35.5232 62.5224 35.2895 63.1101 35.2888H138.294C138.882 35.2895 139.445 35.5232 139.861 35.9387C140.276 36.3543 140.51 36.9177 140.511 37.5053V90.9567C140.51 91.5443 140.276 92.1077 139.861 92.5233C139.445 92.9388 138.882 93.1725 138.294 93.1732ZM63.1101 36.1754C62.7575 36.1758 62.4194 36.316 62.1701 36.5654C61.9208 36.8147 61.7805 37.1527 61.7802 37.5053V90.9567C61.7805 91.3093 61.9208 91.6473 62.1701 91.8966C62.4194 92.146 62.7575 92.2862 63.1101 92.2866H138.294C138.647 92.2862 138.985 92.146 139.234 91.8966C139.483 91.6473 139.624 91.3093 139.624 90.9567V37.5053C139.624 37.1527 139.483 36.8147 139.234 36.5654C138.985 36.316 138.647 36.1758 138.294 36.1754H63.1101Z" fill="#07B977"/>
<path d="M143.232 35.7324H68.048C67.0687 35.7324 66.2748 36.5263 66.2748 37.5056V90.957C66.2748 91.9363 67.0687 92.7302 68.048 92.7302H143.232C144.211 92.7302 145.005 91.9363 145.005 90.957V37.5056C145.005 36.5263 144.211 35.7324 143.232 35.7324Z" fill="white"/>
<path d="M137.277 41.582H74.0031C73.0238 41.582 72.2299 42.3759 72.2299 43.3552V85.1073C72.2299 86.0866 73.0238 86.8805 74.0031 86.8805H137.277C138.256 86.8805 139.05 86.0866 139.05 85.1073V43.3552C139.05 42.3759 138.256 41.582 137.277 41.582Z" fill="#EDFFF9"/>
<path d="M143.232 93.1732H68.0479C67.4603 93.1725 66.8969 92.9388 66.4813 92.5233C66.0658 92.1077 65.8321 91.5443 65.8314 90.9567V37.5053C65.8321 36.9177 66.0658 36.3543 66.4813 35.9387C66.8969 35.5232 67.4603 35.2895 68.0479 35.2888H143.232C143.82 35.2895 144.383 35.5232 144.799 35.9387C145.214 36.3543 145.448 36.9177 145.449 37.5053V90.9567C145.448 91.5443 145.214 92.1077 144.799 92.5233C144.383 92.9388 143.82 93.1725 143.232 93.1732ZM68.0479 36.1754C67.6953 36.1758 67.3573 36.316 67.108 36.5654C66.8586 36.8147 66.7184 37.1527 66.718 37.5053V90.9567C66.7184 91.3093 66.8586 91.6473 67.108 91.8966C67.3573 92.146 67.6953 92.2862 68.0479 92.2866H143.232C143.585 92.2862 143.923 92.146 144.172 91.8966C144.421 91.6473 144.562 91.3093 144.562 90.9567V37.5053C144.562 37.1527 144.421 36.8147 144.172 36.5654C143.923 36.316 143.585 36.1758 143.232 36.1754H68.0479Z" fill="#07B977"/>
<path d="M137.277 41.582H74.0031C73.5328 41.582 73.0818 41.7688 72.7492 42.1014C72.4167 42.4339 72.2299 42.885 72.2299 43.3552V48.238H139.05V43.3552C139.05 42.885 138.863 42.4339 138.531 42.1014C138.198 41.7688 137.747 41.582 137.277 41.582Z" fill="#A2E5DF"/>
<path d="M72.2299 81.2219V85.1073C72.2299 85.5776 72.4167 86.0286 72.7492 86.3611C73.0818 86.6937 73.5328 86.8805 74.0031 86.8805H137.277C137.747 86.8805 138.198 86.6937 138.531 86.3611C138.863 86.0286 139.05 85.5776 139.05 85.1073V81.2219H72.2299Z" fill="#A2E5DF"/>
<path d="M138.017 107.419H151.659C150.898 107.419 150.158 107.163 149.56 106.692C148.962 106.22 148.539 105.562 148.361 104.821L143.949 86.517C143.771 85.7767 143.348 85.1179 142.75 84.6466C142.152 84.1754 141.412 83.9192 140.651 83.9192H139.544C139.031 83.9192 138.526 84.0352 138.064 84.2586C137.603 84.482 137.199 84.8069 136.881 85.2089C136.564 85.611 136.341 86.0797 136.231 86.58C136.12 87.0803 136.124 87.5991 136.243 88.0975L139.918 103.542C140.037 104.04 140.041 104.559 139.931 105.06C139.82 105.56 139.598 106.029 139.28 106.431C138.962 106.833 138.558 107.158 138.097 107.381C137.636 107.604 137.13 107.72 136.618 107.72L138.017 107.419Z" fill="#62E8A5"/>
<path d="M139.012 83.8892H152.653H152.685L157.133 103.267C157.247 103.764 157.247 104.281 157.134 104.778C157.021 105.276 156.798 105.741 156.48 106.14C156.162 106.539 155.758 106.861 155.299 107.083C154.839 107.304 154.336 107.419 153.826 107.419H151.659C150.898 107.419 150.158 107.163 149.56 106.692C148.962 106.22 148.539 105.562 148.361 104.821L143.949 86.5172C143.771 85.7768 143.348 85.118 142.75 84.6467C142.152 84.1755 141.412 83.9193 140.651 83.9193L139.012 83.8892Z" fill="#07B977"/>
<path d="M131.995 101.062L133.372 105.315C133.584 106.011 134.013 106.621 134.598 107.054C135.182 107.487 135.89 107.72 136.618 107.72C137.13 107.72 137.636 107.604 138.097 107.381C138.558 107.158 138.962 106.833 139.28 106.431C139.598 106.029 139.82 105.56 139.931 105.06C140.041 104.559 140.037 104.04 139.918 103.542L139.328 101.062H131.995Z" fill="#07B977"/>
<path d="M153.826 107.419C154.336 107.419 154.839 107.304 155.299 107.083C155.758 106.861 156.162 106.539 156.48 106.14C156.798 105.741 157.021 105.276 157.134 104.778C157.247 104.281 157.247 103.764 157.133 103.267L149.759 71.1391C149.645 70.642 149.644 70.1255 149.757 69.6282C149.871 69.1308 150.094 68.6653 150.412 68.2663C150.73 67.8674 151.133 67.5452 151.593 67.3237C152.052 67.1023 152.556 66.9873 153.066 66.9873H154.388L172.812 71.1391L180.185 103.267C180.3 103.764 180.3 104.281 180.187 104.778C180.074 105.276 179.85 105.741 179.532 106.14C179.215 106.539 178.811 106.861 178.352 107.083C177.892 107.304 177.389 107.419 176.879 107.419H153.826Z" fill="#62E8A5"/>
<path d="M176.118 66.9873H177.44C178.176 66.9873 178.892 67.2266 179.48 67.6691C180.068 68.1116 180.497 68.7333 180.7 69.4405L182.239 74.7777C182.443 75.4848 182.871 76.1065 183.459 76.549C184.047 76.9915 184.763 77.2308 185.499 77.2308H162.446C161.71 77.2308 160.994 76.9915 160.406 76.549C159.818 76.1065 159.39 75.4848 159.186 74.7777L157.648 69.4405C157.444 68.7333 157.016 68.1116 156.428 67.6691C155.84 67.2266 155.124 66.9873 154.388 66.9873H176.118Z" fill="#07B977"/>
<path d="M162.446 77.2308H162.817C163.33 77.2308 163.837 77.1144 164.299 76.8904C164.76 76.6664 165.165 76.3406 165.482 75.9376C165.8 75.5345 166.022 75.0647 166.132 74.5635C166.241 74.0623 166.236 73.5427 166.116 73.0438L165.557 70.7231H188.61L189.169 73.0438C189.289 73.5427 189.294 74.0623 189.184 74.5635C189.075 75.0647 188.853 75.5345 188.535 75.9376C188.218 76.3406 187.813 76.6664 187.351 76.8904C186.89 77.1144 186.383 77.2308 185.87 77.2308H162.446Z" fill="#92EFC4"/>
<path d="M171.375 82.3916H155.212V83.2782H171.375V82.3916Z" fill="#07B977"/>
<path d="M172.484 86.2573H156.321V87.1439H172.484V86.2573Z" fill="#07B977"/>
<path d="M173.618 90.1582H157.455V91.0448H173.618V90.1582Z" fill="#07B977"/>
<path d="M174.753 94.0591H158.59V94.9457H174.753V94.0591Z" fill="#07B977"/>
<path d="M175.887 97.9602H159.724V98.8468H175.887V97.9602Z" fill="#07B977"/>
<path d="M177.022 101.862H160.859V102.748H177.022V101.862Z" fill="#07B977"/>
<path d="M148.004 89.5745H140.026V90.4611H148.004V89.5745Z" fill="#07B977"/>
<path d="M148.552 93.4402H140.574V94.3268H148.552V93.4402Z" fill="#07B977"/>
<path d="M149.111 97.3408H141.134V98.2274H149.111V97.3408Z" fill="#07B977"/>
<path d="M149.671 101.242H141.694V102.129H149.671V101.242Z" fill="#07B977"/>
<path d="M13.6855 107.72L48.7992 107.662C49.078 107.662 49.3542 107.608 49.612 107.501C49.8697 107.395 50.104 107.239 50.3013 107.042C50.4987 106.845 50.6553 106.611 50.7622 106.353C50.8692 106.095 50.9244 105.819 50.9246 105.54L55.1375 82.6357C55.138 82.0725 54.9147 81.5321 54.5168 81.1335C54.1188 80.7349 53.5789 80.5107 53.0156 80.5103L9.79979 88.7569C9.70341 88.7568 9.60713 88.7632 9.51161 88.776C8.19841 88.9531 7.48304 90.4285 8.00123 91.648L11.5636 105.595C11.5634 105.874 11.6181 106.15 11.7246 106.407C11.8311 106.665 11.9873 106.899 12.1843 107.097C12.3814 107.294 12.6154 107.451 12.8729 107.558C13.1305 107.665 13.4066 107.72 13.6855 107.72Z" fill="#61C6AB"/>
<path d="M49.7362 107.72H16.0988V63.9734C16.0988 63.6599 16.2233 63.3592 16.445 63.1375C16.6667 62.9158 16.9674 62.7913 17.2809 62.7913H48.5541C48.8676 62.7913 49.1683 62.9158 49.39 63.1375C49.6117 63.3592 49.7362 63.6599 49.7362 63.9734V107.72Z" fill="#A2E5DF"/>
<path d="M44.1783 69.5942H32.9174V70.4808H44.1783V69.5942Z" fill="#45A37F"/>
<path d="M44.1783 74.2793H32.9174V75.1659H44.1783V74.2793Z" fill="#45A37F"/>
<path d="M44.1783 78.9641H32.9174V79.8507H44.1783V78.9641Z" fill="#45A37F"/>
<path d="M52.68 100.834H42.568V90.3059H54.1886C54.4382 90.3059 54.6846 90.3616 54.91 90.4689C55.1353 90.5762 55.3338 90.7325 55.4911 90.9263C55.6484 91.1201 55.7604 91.3465 55.819 91.5891C55.8777 91.8317 55.8815 92.0843 55.8301 92.3285L54.3215 99.5021C54.2423 99.8788 54.0359 100.217 53.737 100.459C53.4381 100.702 53.0649 100.834 52.68 100.834Z" fill="#07B977"/>
<path d="M12.547 107.69L48.8186 107.72C49.0974 107.721 49.3736 107.666 49.6314 107.559C49.8891 107.453 50.1234 107.297 50.3207 107.1C50.5181 106.903 50.6747 106.669 50.7817 106.411C50.8886 106.153 50.9437 105.877 50.944 105.598L45.0946 81.5429C45.0948 81.264 45.0401 80.9878 44.9336 80.7301C44.8271 80.4723 44.6709 80.2381 44.4739 80.0407C44.2768 79.8434 44.0429 79.6867 43.7853 79.5798C43.5277 79.4729 43.2516 79.4177 42.9728 79.4175L30.9102 79.4072C30.5692 79.4069 30.2332 79.4888 29.9305 79.6458C29.6278 79.8028 29.3674 80.0303 29.1713 80.3092L27.1434 85.5779C26.9473 85.8568 26.6868 86.0844 26.3842 86.2414C26.0815 86.3984 25.7455 86.4802 25.4045 86.4799L6.69525 86.4655C6.41637 86.4652 6.14018 86.5199 5.88244 86.6264C5.6247 86.7329 5.39046 86.8891 5.19309 87.0862C4.99573 87.2832 4.8391 87.5172 4.73216 87.7747C4.62522 88.0323 4.57006 88.3084 4.56982 88.5873L10.4252 105.564C10.425 105.843 10.4797 106.119 10.5862 106.377C10.6927 106.635 10.8489 106.869 11.0459 107.066C11.243 107.264 11.4769 107.42 11.7345 107.527C11.9921 107.634 12.2682 107.689 12.547 107.69Z" fill="#61E0B6"/>
<path d="M23.6842 96.9785L16.7007 91.0763C16.6396 91.0247 16.5651 90.9917 16.4859 90.981C16.4066 90.9704 16.326 90.9826 16.2535 91.0163C16.181 91.0499 16.1196 91.1036 16.0766 91.171C16.0335 91.2384 16.0107 91.3167 16.0107 91.3966V92.1622C16.0107 92.2173 15.9998 92.2718 15.9788 92.3227C15.9577 92.3735 15.9268 92.4198 15.8878 92.4587C15.8489 92.4976 15.8027 92.5285 15.7518 92.5496C15.7009 92.5707 15.6464 92.5815 15.5913 92.5815H5.93383L0.737061 91.4437V103.11H15.5913C15.6464 103.11 15.7009 103.121 15.7518 103.142C15.8027 103.163 15.8489 103.194 15.8878 103.233C15.9268 103.272 15.9577 103.318 15.9788 103.369C15.9998 103.42 16.0107 103.474 16.0107 103.529V104.098C16.0107 104.181 16.035 104.261 16.0806 104.33C16.1262 104.399 16.191 104.453 16.267 104.485C16.3429 104.517 16.4267 104.526 16.5077 104.51C16.5887 104.495 16.6635 104.456 16.7226 104.399L23.706 97.5993C23.7479 97.5585 23.7808 97.5093 23.8026 97.4551C23.8244 97.4008 23.8346 97.3425 23.8325 97.2841C23.8305 97.2256 23.8162 97.1682 23.7907 97.1156C23.7651 97.063 23.7288 97.0163 23.6842 96.9785Z" fill="#07B977"/>
<path d="M5.93383 92.5816H1.87489C1.57312 92.5816 1.28371 92.4617 1.07033 92.2483C0.856942 92.0349 0.737061 91.7455 0.737061 91.4437C0.737061 91.142 0.856942 90.8526 1.07033 90.6392C1.28371 90.4258 1.57312 90.3059 1.87489 90.3059H5.1626L5.93383 92.5816Z" fill="#44A07A"/>
<path d="M27.4614 70.0376H20.0593C19.8961 70.0376 19.7638 70.1699 19.7638 70.3331V79.1118C19.7638 79.2751 19.8961 79.4074 20.0593 79.4074H27.4614C27.6246 79.4074 27.7569 79.2751 27.7569 79.1118V70.3331C27.7569 70.1699 27.6246 70.0376 27.4614 70.0376Z" fill="#EDFFF9"/>
<g opacity="0.28">
<path d="M78.2811 49.5903H37.4154C37.3004 49.5903 37.1902 49.5447 37.1089 49.4634C37.0276 49.3821 36.9819 49.2719 36.9819 49.1569V24.9842C36.9819 24.8692 37.0276 24.759 37.1089 24.6777C37.1902 24.5964 37.3004 24.5508 37.4154 24.5508H61.8172C61.8811 24.5508 61.9442 24.5649 62.002 24.5922C62.0598 24.6194 62.1109 24.6591 62.1515 24.7084L67.2294 30.8634C67.27 30.9126 67.3211 30.9523 67.3789 30.9796C67.4367 31.0068 67.4998 31.021 67.5637 31.021H78.2811C78.338 31.021 78.3944 31.0322 78.447 31.0539C78.4996 31.0757 78.5474 31.1077 78.5876 31.1479C78.6278 31.1881 78.6598 31.2359 78.6815 31.2885C78.7033 31.3411 78.7145 31.3975 78.7145 31.4544V49.1569C78.7145 49.2719 78.6689 49.3821 78.5876 49.4634C78.5063 49.5447 78.3961 49.5903 78.2811 49.5903Z" fill="#62E8A5"/>
</g>
<path d="M74.318 44.6629H33.4522C33.3373 44.6629 33.227 44.6172 33.1457 44.5359C33.0645 44.4546 33.0188 44.3444 33.0188 44.2294V20.0567C33.0188 19.9998 33.03 19.9434 33.0518 19.8908C33.0736 19.8383 33.1055 19.7905 33.1457 19.7502C33.186 19.71 33.2338 19.6781 33.2864 19.6563C33.3389 19.6345 33.3953 19.6233 33.4522 19.6233H57.8541C57.918 19.6233 57.9811 19.6374 58.0389 19.6647C58.0967 19.6919 58.1477 19.7316 58.1884 19.7809L63.2662 25.9359C63.3069 25.9852 63.358 26.0248 63.4158 26.0521C63.4736 26.0793 63.5367 26.0935 63.6006 26.0935H74.318C74.4329 26.0935 74.5432 26.1391 74.6245 26.2204C74.7057 26.3017 74.7514 26.4119 74.7514 26.5269V44.2294C74.7514 44.3444 74.7057 44.4546 74.6245 44.5359C74.5432 44.6172 74.4329 44.6629 74.318 44.6629Z" fill="white"/>
<path d="M70.8363 38.6943H60.1538C59.8274 38.6943 59.5627 38.959 59.5627 39.2854V41.0148C59.5627 41.3413 59.8274 41.6059 60.1538 41.6059H70.8363C71.1628 41.6059 71.4274 41.3413 71.4274 41.0148V39.2854C71.4274 38.959 71.1628 38.6943 70.8363 38.6943Z" fill="#A2E5DF"/>
<path d="M70.8363 33.5991H60.1538C59.8274 33.5991 59.5627 33.8638 59.5627 34.1902V35.9196C59.5627 36.2461 59.8274 36.5107 60.1538 36.5107H70.8363C71.1628 36.5107 71.4274 36.2461 71.4274 35.9196V34.1902C71.4274 33.8638 71.1628 33.5991 70.8363 33.5991Z" fill="#A2E5DF"/>
<path d="M46.969 40.9751H38.4991C38.3841 40.9751 38.2739 40.9294 38.1926 40.8482C38.1113 40.7669 38.0657 40.6566 38.0657 40.5417V34.0325C38.0657 33.9176 38.1113 33.8073 38.1926 33.7261C38.2739 33.6448 38.3841 33.5991 38.4991 33.5991H49.4727C49.5876 33.5991 49.6979 33.6448 49.7791 33.7261C49.8604 33.8073 49.9061 33.9176 49.9061 34.0325V38.6259C49.9061 38.6924 49.8907 38.7581 49.8613 38.8178C49.8318 38.8775 49.7889 38.9296 49.7361 38.9701L47.2324 40.8859C47.1568 40.9438 47.0642 40.9751 46.969 40.9751Z" fill="#A2E5DF"/>
<path d="M47.1799 24.1367H38.6567C38.3303 24.1367 38.0657 24.4013 38.0657 24.7278V26.4572C38.0657 26.7837 38.3303 27.0483 38.6567 27.0483H47.1799C47.5063 27.0483 47.7709 26.7837 47.7709 26.4572V24.7278C47.7709 24.4013 47.5063 24.1367 47.1799 24.1367Z" fill="#A2E5DF"/>
<path d="M74.318 45.1067H33.4522C33.2198 45.1064 32.9969 45.0139 32.8326 44.8495C32.6682 44.6852 32.5757 44.4623 32.5754 44.2299V20.0572C32.5757 19.8248 32.6682 19.6019 32.8326 19.4375C32.9969 19.2732 33.2198 19.1807 33.4522 19.1804H57.854C57.9832 19.1802 58.1109 19.2087 58.2278 19.2638C58.3447 19.3189 58.4479 19.3992 58.53 19.499L63.6083 25.6542L74.318 25.6507C74.5504 25.651 74.7733 25.7435 74.9376 25.9078C75.102 26.0722 75.1945 26.2951 75.1948 26.5275V44.2299C75.1945 44.4623 75.102 44.6852 74.9376 44.8495C74.7733 45.0139 74.5504 45.1064 74.318 45.1067ZM57.8462 20.0633L33.4522 20.067L33.462 44.2299L74.3081 44.2201V26.5275L63.6005 26.5373C63.4712 26.5376 63.3434 26.5091 63.2264 26.4539C63.1094 26.3988 63.0061 26.3183 62.924 26.2184L57.8462 20.0633Z" fill="#07B977"/>
<path d="M148.623 41.8339L139.592 16.1668C139.446 15.7555 139.469 15.303 139.657 14.909C139.845 14.515 140.181 14.2117 140.593 14.0658L157.321 8.13322C157.524 8.06099 157.74 8.02958 157.956 8.04079C158.172 8.052 158.383 8.1056 158.578 8.19854C158.774 8.29149 158.948 8.42194 159.093 8.58247C159.238 8.743 159.349 8.93044 159.422 9.13412L168.399 38.0329C168.424 38.1033 168.444 38.1753 168.459 38.2484C168.669 39.2535 167.776 40.1573 166.751 40.0939L150.724 42.8348C150.312 42.9807 149.86 42.9572 149.466 42.7695C149.072 42.5818 148.769 42.2452 148.623 41.8339Z" fill="#77D8BB"/>
<path d="M147.561 39.4104L138.167 12.9204C138.021 12.5091 138.044 12.0566 138.232 11.6626C138.42 11.2686 138.756 10.9653 139.168 10.8194L157.655 4.26286C158.066 4.11698 158.519 4.14048 158.913 4.32818C159.307 4.51589 159.61 4.85242 159.756 5.26376L162.88 14.0734C162.968 14.3224 162.995 14.589 162.959 14.8507C162.922 15.1124 162.824 15.3614 162.67 15.5768L159.779 19.645C159.626 19.8604 159.527 20.1094 159.49 20.3711C159.454 20.6328 159.481 20.8994 159.569 21.1484L163.981 33.5872C164.127 33.9986 164.103 34.451 163.915 34.845C163.728 35.239 163.391 35.5424 162.98 35.6882L149.662 40.4113C149.459 40.4835 149.243 40.5149 149.027 40.5037C148.811 40.4925 148.6 40.4389 148.405 40.346C148.21 40.253 148.035 40.1226 147.89 39.9621C147.745 39.8015 147.634 39.6141 147.561 39.4104Z" fill="#92EFC4"/>
<path d="M156.143 7.99055L142.211 13.2063L142.625 14.3134L156.558 9.09765L156.143 7.99055Z" fill="#07B977"/>
<path d="M157.546 11.5082L143.613 16.7241L144.028 17.8312L157.961 12.6153L157.546 11.5082Z" fill="#07B977"/>
<path d="M158.961 15.1634L145.028 20.3792L145.442 21.4862L159.375 16.2705L158.961 15.1634Z" fill="#07B977"/>
<path d="M92.9439 62.1576H77.5281C77.4848 62.1576 77.4432 62.1403 77.4125 62.1097C77.3819 62.079 77.3646 62.0374 77.3646 61.9941V52.8754C77.3646 52.832 77.3819 52.7905 77.4125 52.7598C77.4432 52.7291 77.4848 52.7119 77.5281 52.7119H86.7332C86.7573 52.7119 86.7811 52.7172 86.8029 52.7275C86.8247 52.7378 86.844 52.7528 86.8593 52.7714L88.7748 55.0932C88.7902 55.1118 88.8094 55.1268 88.8312 55.137C88.853 55.1473 88.8768 55.1526 88.9009 55.1526H92.9439C92.9872 55.1526 93.0288 55.1699 93.0595 55.2005C93.0901 55.2312 93.1074 55.2728 93.1074 55.3161V61.9941C93.1074 62.0374 93.0901 62.079 93.0595 62.1097C93.0288 62.1403 92.9872 62.1576 92.9439 62.1576Z" fill="#A2E5DF"/>
<path d="M113.348 62.1576H97.9322C97.8888 62.1576 97.8472 62.1403 97.8166 62.1097C97.7859 62.079 97.7687 62.0374 97.7687 61.9941V52.8754C97.7687 52.832 97.7859 52.7905 97.8166 52.7598C97.8472 52.7291 97.8888 52.7119 97.9322 52.7119H107.137C107.161 52.7119 107.185 52.7172 107.207 52.7275C107.229 52.7378 107.248 52.7528 107.263 52.7714L109.179 55.0932C109.194 55.1118 109.213 55.1268 109.235 55.137C109.257 55.1473 109.281 55.1526 109.305 55.1526H113.348C113.391 55.1526 113.433 55.1699 113.464 55.2005C113.494 55.2312 113.511 55.2728 113.511 55.3161V61.9941C113.511 62.0374 113.494 62.079 113.464 62.1097C113.433 62.1403 113.391 62.1576 113.348 62.1576Z" fill="#A2E5DF"/>
<path d="M133.752 62.1576H118.336C118.293 62.1576 118.251 62.1403 118.221 62.1097C118.19 62.079 118.173 62.0374 118.173 61.9941V52.8754C118.173 52.832 118.19 52.7905 118.221 52.7598C118.251 52.7291 118.293 52.7119 118.336 52.7119H127.541C127.566 52.7119 127.589 52.7172 127.611 52.7275C127.633 52.7378 127.652 52.7528 127.668 52.7714L129.583 55.0932C129.598 55.1118 129.618 55.1268 129.639 55.137C129.661 55.1473 129.685 55.1526 129.709 55.1526H133.752C133.795 55.1526 133.837 55.1699 133.868 55.2005C133.898 55.2312 133.916 55.2728 133.916 55.3161V61.9941C133.916 62.0374 133.898 62.079 133.868 62.1097C133.837 62.1403 133.795 62.1576 133.752 62.1576Z" fill="#A2E5DF"/>
<path d="M92.5162 69.7232H77.9556C77.6814 69.7229 77.4185 69.6138 77.2246 69.4199C77.0307 69.226 76.9216 68.9631 76.9213 68.6889V65.3315C76.9216 65.0573 77.0307 64.7944 77.2246 64.6004C77.4185 64.4065 77.6814 64.2975 77.9556 64.2971H92.5162C92.7904 64.2975 93.0533 64.4065 93.2472 64.6004C93.4411 64.7944 93.5502 65.0573 93.5506 65.3315V68.6889C93.5502 68.9631 93.4411 69.226 93.2472 69.4199C93.0533 69.6138 92.7904 69.7229 92.5162 69.7232ZM77.9556 65.1837C77.9165 65.1838 77.8789 65.1994 77.8512 65.2271C77.8235 65.2548 77.8079 65.2923 77.8079 65.3315V68.6889C77.8079 68.728 77.8235 68.7656 77.8512 68.7933C77.8789 68.821 77.9165 68.8366 77.9556 68.8366H92.5162C92.5554 68.8366 92.5929 68.821 92.6206 68.7933C92.6483 68.7656 92.6639 68.728 92.664 68.6889V65.3315C92.6639 65.2923 92.6483 65.2548 92.6206 65.2271C92.5929 65.1994 92.5554 65.1838 92.5162 65.1837H77.9556Z" fill="#45A37F"/>
<path d="M133.325 64.7405H118.764C118.437 64.7405 118.173 65.0051 118.173 65.3315V68.6888C118.173 69.0153 118.437 69.2799 118.764 69.2799H133.325C133.651 69.2799 133.916 69.0153 133.916 68.6888V65.3315C133.916 65.0051 133.651 64.7405 133.325 64.7405Z" fill="#A2E5DF"/>
<path d="M133.325 71.8628H118.764C118.437 71.8628 118.173 72.1274 118.173 72.4539V75.8111C118.173 76.1376 118.437 76.4022 118.764 76.4022H133.325C133.651 76.4022 133.916 76.1376 133.916 75.8111V72.4539C133.916 72.1274 133.651 71.8628 133.325 71.8628Z" fill="white"/>
</g>
</svg>
