<svg width="906" height="641" viewBox="0 0 906 641" fill="none" xmlns="http://www.w3.org/2000/svg">
<path d="M305.283 637.445C294.523 637.445 284.06 636.965 273.893 636.005C205.253 629.675 150.983 602.615 114.893 564.835C95.8019 545.144 81.3649 521.427 72.6429 495.425C64.4279 470.809 62.0319 444.623 65.6429 418.925C90.5829 241.785 300.043 327.925 212.233 220.185C124.423 112.445 296.323 -24.5847 362.283 7.84534C428.243 40.2753 355.503 109.635 518.503 76.8453C681.503 44.0553 647.773 188.125 647.773 188.125" stroke="#CCE2DB" stroke-width="4.82" stroke-miterlimit="10"/>
<path d="M744.133 484.564C744.133 484.564 818.783 431.034 847.603 490.234C847.603 490.234 817.293 382.814 713.913 344.394C713.913 344.394 684.363 327.954 683.063 337.884C681.763 347.814 673.193 352.884 669.443 352.764C665.693 352.644 634.033 354.624 632.933 349.894C631.833 345.164 633.933 330.994 618.233 330.894C602.533 330.794 517.343 351.724 492.983 373.844C492.983 373.844 535.383 425.034 512.713 481.474L531.813 476.844C531.813 476.844 520.033 578.844 536.093 638.174H813.493C813.493 638.174 785.763 641.664 757.323 621.374L716.023 568.374C716.023 568.374 697.913 540.934 660.913 537.014C660.913 537.014 639.853 534.714 640.053 524.704C640.253 514.694 632.463 531.114 622.053 516.644C620.783 516.644 595.483 518.104 595.483 518.104C595.483 518.104 576.483 519.884 572.913 502.924C569.343 485.964 556.183 366.924 560.913 359.774C565.643 352.624 567.453 352.534 607.373 352.774C647.293 353.014 682.373 345.054 687.453 364.914C692.533 384.774 698.403 460.024 698.403 460.024C698.403 460.024 720.903 465.914 738.043 490.284C737.983 490.274 744.133 502.154 744.133 484.564Z" fill="#2E2E2E"/>
<path d="M744.133 448.413V495.273" stroke="black" stroke-width="4.82" stroke-miterlimit="10"/>
<path d="M533.093 471.845C489.043 495.245 367.303 543.055 362.983 359.165C362.983 359.165 368.223 310.875 354.563 304.575C340.903 298.275 318.873 278.325 347.243 230.025L328.733 211.555C326.232 208.981 324.856 205.519 324.907 201.93C324.959 198.342 326.434 194.921 329.008 192.42C331.582 189.919 335.044 188.543 338.632 188.594C342.221 188.646 345.642 190.121 348.143 192.695L384.933 231.695C384.933 231.695 390.263 221.695 399.713 226.905C409.163 232.115 443.823 254.225 428.083 300.395L469.023 417.995" stroke="black" stroke-width="4.82" stroke-miterlimit="10"/>
<path d="M384.983 231.671C384.983 231.671 375.173 246.601 396.053 261.861" stroke="black" stroke-width="4.82" stroke-miterlimit="10"/>
<path d="M341.203 241.625C341.203 241.625 335.093 260.815 359.743 273.195C368.463 277.575 378.033 268.355 373.913 259.505C373.843 259.375 373.783 259.234 373.713 259.094" stroke="black" stroke-width="4.82" stroke-miterlimit="10"/>
<path d="M333.743 265.323C333.743 265.323 339.133 284.063 353.883 284.963C366.933 285.753 364.743 272.443 364.743 272.443" stroke="black" stroke-width="4.82" stroke-miterlimit="10"/>
<path d="M586.083 253.585C587.083 253.845 587.713 253.015 588.643 253.175C602.013 250.735 611.953 240.175 613.073 235.095C612.693 237.865 607.613 237.585 608.473 240.415C608.633 240.955 608.953 240.745 609.213 241.265C609.633 242.265 609.623 240.895 610.213 241.795C613.493 236.945 615.393 234.535 615.973 231.865C615.579 234.731 615.811 237.648 616.653 240.415C616.807 240.956 617.011 241.482 617.263 241.985C619.263 246.705 623.433 250.695 630.403 251.685C632.15 251.906 633.915 251.963 635.673 251.855C640.673 251.565 644.993 251.275 648.673 251.115C660.973 250.565 665.383 251.495 664.003 259.435C663.242 263.026 662.164 266.544 660.783 269.945C658.343 276.365 656.643 287.485 659.143 299.595V299.665C662.043 313.765 671.223 324.665 690.893 334.905C694.378 336.704 697.971 338.283 701.653 339.635C735.783 352.295 817.423 384.365 851.263 501.965C854.863 514.495 857.553 525.895 859.453 536.305L860.383 535.765C883.493 521.915 898.563 490.845 893.983 464.115C891.703 450.845 883.063 441.585 871.983 434.615C864.203 429.795 855.883 425.845 848.913 419.895C825.813 400.165 844.283 369.485 831.493 345.895C817.073 319.355 794.493 302.995 765.013 301.645C757.593 301.965 749.243 302.835 741.143 302.445C729.383 302.865 717.363 301.905 708.753 294.195C701.973 288.195 700.563 278.415 697.993 270.255C695.099 261.053 692.686 251.707 690.763 242.255C689.004 233.293 685.723 224.699 681.063 216.845C676.032 208.334 668.937 201.228 660.433 196.185C653.015 191.998 644.744 189.546 636.243 189.015C628.501 189.471 620.97 191.717 614.243 195.575C611.946 196.933 609.774 198.492 607.753 200.235C592.863 212.935 585.733 234.435 586.083 253.585Z" fill="#07B977"/>
<path d="M360.163 283.843C360.163 283.843 364.933 289.763 362.323 295.383C359.713 301.003 353.233 302.313 346.933 299.853" stroke="black" stroke-width="4.82" stroke-miterlimit="10"/>
<path d="M347.263 230.023L360.443 243.193" stroke="black" stroke-width="4.82" stroke-miterlimit="10"/>
<path d="M698.353 458.734L687.623 366.234C687.189 362.491 685.394 359.04 682.581 356.534C679.767 354.028 676.131 352.644 672.363 352.645H573.823C571.667 352.644 569.535 353.097 567.565 353.974C565.596 354.851 563.833 356.133 562.392 357.737C560.95 359.341 559.863 361.23 559.2 363.281C558.537 365.333 558.313 367.501 558.543 369.645L572.903 502.935C573.31 506.703 575.095 510.189 577.916 512.721C580.736 515.254 584.393 516.654 588.183 516.654H623.443" stroke="black" stroke-width="4.82" stroke-miterlimit="10"/>
<path d="M581.883 376.203C579.663 376.203 577.863 374.404 577.863 372.183C577.863 369.963 579.663 368.163 581.883 368.163C584.103 368.163 585.903 369.963 585.903 372.183C585.903 374.404 584.103 376.203 581.883 376.203Z" fill="black"/>
<path d="M648.243 480.195C637.843 482.535 635.763 482.575 625.673 484.075C619.313 485.025 604.773 485.815 604.513 475.945C604.273 467.275 614.003 462.185 620.873 459.415C628.802 456.399 637.099 454.459 645.543 453.645C649.023 453.245 652.52 452.971 656.033 452.825C680.383 451.825 708.473 457.715 725.243 476.765C764.093 520.845 815.753 549.185 815.753 549.185" stroke="black" stroke-width="4.82" stroke-miterlimit="10"/>
<path d="M620.393 484.562C615.393 486.682 606.923 491.202 610.393 499.862C611.973 503.862 614.843 505.282 618.783 505.862C627.293 507.092 636.423 505.283 644.783 503.533C647.873 502.883 653.353 501.692 656.403 500.852" stroke="black" stroke-width="4.82" stroke-miterlimit="10"/>
<path d="M629.283 506.063C629.283 506.063 620.193 505.953 622.383 514.403C625.993 528.403 654.043 522.063 667.163 519.123" stroke="black" stroke-width="4.82" stroke-miterlimit="10"/>
<path d="M628.723 331.652C585.983 333.522 520.853 346.052 461.793 397.142" stroke="black" stroke-width="4.82" stroke-miterlimit="10"/>
<path d="M305.283 637.452L813.493 638.212" stroke="black" stroke-width="4.82" stroke-miterlimit="10"/>
<path d="M533.093 452.722C533.093 452.722 523.093 545.792 533.093 637.452" stroke="black" stroke-width="4.82" stroke-miterlimit="10"/>
<path opacity="0.54" d="M91.7728 410.213L3.88281 185.003C2.79282 180.645 2.71075 176.097 3.64276 171.703C4.57376 167.309 6.4938 163.185 9.25781 159.644C12.0218 156.104 15.5558 153.239 19.5918 151.269C23.6288 149.298 28.0608 148.274 32.5528 148.273H381.703C389.542 148.272 397.154 150.91 403.311 155.763C409.468 160.615 413.812 167.4 415.643 175.023L511.883 400.183C512.928 404.528 512.973 409.054 512.017 413.42C511.06 417.786 509.125 421.878 506.359 425.389C503.593 428.899 500.066 431.737 496.045 433.688C492.024 435.639 487.612 436.653 483.143 436.653H125.643C117.857 436.653 110.295 434.052 104.158 429.261C98.0208 424.47 93.6618 417.766 91.7728 410.213Z" fill="white"/>
<path d="M91.7728 410.213L3.88281 185.003C2.79282 180.645 2.71075 176.097 3.64276 171.703C4.57376 167.309 6.4938 163.185 9.25781 159.644C12.0218 156.104 15.5558 153.239 19.5918 151.269C23.6288 149.298 28.0608 148.274 32.5528 148.273H381.703C389.542 148.272 397.154 150.91 403.311 155.763C409.468 160.615 413.812 167.4 415.643 175.023L511.883 400.183C512.928 404.528 512.973 409.054 512.017 413.42C511.06 417.786 509.125 421.878 506.359 425.389C503.593 428.899 500.066 431.737 496.045 433.688C492.024 435.639 487.612 436.653 483.143 436.653H125.643C117.857 436.653 110.295 434.052 104.158 429.261C98.0208 424.47 93.6618 417.766 91.7728 410.213Z" fill="#07B977"/>
<path d="M91.7728 410.213L3.88281 185.003C2.79281 180.645 2.71076 176.097 3.64276 171.703C4.57376 167.309 6.49381 163.185 9.25781 159.644C12.0218 156.104 15.5558 153.239 19.5918 151.269C23.6288 149.298 28.0608 148.274 32.5528 148.273H381.703C389.542 148.272 397.154 150.91 403.311 155.763C409.468 160.615 413.812 167.4 415.643 175.023L511.883 400.183C512.928 404.528 512.973 409.054 512.017 413.42C511.06 417.786 509.125 421.878 506.359 425.389C503.593 428.899 500.066 431.737 496.045 433.688C492.024 435.639 487.612 436.653 483.143 436.653H125.643C117.857 436.653 110.295 434.052 104.158 429.261C98.0208 424.47 93.6618 417.766 91.7728 410.213Z" stroke="black" stroke-width="4.82" stroke-linecap="square" stroke-linejoin="round"/>
<path d="M104.633 401.095L23.5428 193.325C22.5388 189.306 22.4638 185.111 23.3228 181.059C24.1818 177.006 25.9528 173.203 28.5008 169.937C31.0498 166.672 34.3088 164.029 38.0308 162.211C41.7527 160.393 45.8408 159.447 49.9828 159.445H372.113C379.346 159.443 386.368 161.877 392.049 166.354C397.729 170.832 401.736 177.091 403.423 184.125L492.213 391.845C493.176 395.854 493.218 400.029 492.334 404.057C491.451 408.084 489.666 411.859 487.113 415.097C484.56 418.335 481.306 420.953 477.596 422.752C473.886 424.551 469.816 425.485 465.693 425.485H135.873C128.693 425.481 121.719 423.08 116.059 418.661C110.4 414.242 106.378 408.06 104.633 401.095Z" fill="#07B977"/>
<path d="M348.873 197.643C344.603 191.233 337.613 188.383 333.263 191.273C328.913 194.163 328.853 201.713 333.123 208.123C333.786 209.108 334.535 210.032 335.363 210.883L303.713 277.703C298.713 274.333 293.113 273.503 289.133 276.153C286.563 277.863 285.133 280.773 284.683 284.153L263.063 276.853L244.153 270.533C242.153 269.843 240.043 269.183 237.983 268.533C237.206 266.211 236.127 264.002 234.773 261.963C228.773 252.963 218.963 248.963 212.863 252.963C206.763 256.963 206.683 267.433 212.513 276.383L176.513 325.613C168.663 319.173 159.413 317.183 153.003 321.443C144.283 327.243 144.153 342.383 152.713 355.253C153.053 355.763 153.443 356.183 153.803 356.673L129.803 389.463C129.733 389.563 129.643 389.683 129.583 389.783C128.976 390.698 128.556 391.724 128.346 392.802C128.135 393.879 128.14 394.988 128.358 396.064C128.576 397.141 129.004 398.163 129.618 399.074C130.231 399.985 131.018 400.766 131.933 401.373C132.848 401.979 133.874 402.4 134.952 402.61C136.03 402.82 137.139 402.816 138.215 402.598C139.291 402.38 140.314 401.952 141.225 401.338C142.135 400.725 142.916 399.938 143.523 399.023L164.833 366.873C171.573 370.783 178.733 371.533 183.983 368.033C192.323 362.493 192.723 348.453 185.293 336.033L219.803 283.963C224.893 287.423 230.513 288.303 234.543 285.633C236.794 284.045 238.328 281.634 238.813 278.923C239.673 279.153 240.523 279.403 241.383 279.643L260.613 284.893L285.223 291.523C285.977 294.473 287.221 297.275 288.903 299.813C294.903 308.813 304.703 312.813 310.813 308.763C316.923 304.713 317.013 294.103 311.023 285.093C310.13 283.786 309.126 282.558 308.023 281.423L338.153 213.293C341.783 215.763 345.793 216.403 348.663 214.493C353.073 211.613 353.143 204.063 348.873 197.643Z" fill="white"/>
<path d="M119.673 201.332H72.9828C70.8468 201.332 68.7569 200.709 66.9689 199.541C65.1809 198.372 63.7708 196.708 62.9128 194.752C62.6388 194.152 62.4918 193.502 62.4828 192.842C62.4928 191.567 63.0068 190.348 63.9108 189.449C64.8148 188.55 66.0379 188.045 67.3129 188.042H116.983C114.613 191.992 115.793 197.452 119.673 201.332Z" fill="#D7F0E7"/>
<path d="M149.863 196.542C149.86 197.814 149.353 199.032 148.453 199.93C147.554 200.828 146.334 201.332 145.063 201.332H119.673C115.793 197.452 114.613 191.992 116.943 188.042H139.363C141.497 188.041 143.585 188.661 145.373 189.825C147.161 190.99 148.572 192.65 149.433 194.602C149.705 195.214 149.851 195.873 149.863 196.542Z" fill="#07B977"/>
<path d="M138.183 201.333C138.051 201.59 137.897 201.834 137.723 202.063C134.393 206.613 127.173 207.063 121.553 202.943C120.888 202.453 120.26 201.915 119.673 201.333C115.793 197.453 114.613 191.993 116.943 188.043C117.075 187.79 117.229 187.549 117.403 187.323C120.703 182.743 127.923 182.323 133.543 186.413C134.217 186.911 134.855 187.456 135.453 188.043C139.303 191.933 140.483 197.363 138.183 201.333Z" fill="white"/>
<path d="M161.603 225.845C161.593 227.119 161.079 228.337 160.174 229.234C159.27 230.131 158.047 230.635 156.773 230.635H107.773C110.143 226.635 108.963 221.235 105.073 217.355H151.073C153.209 217.355 155.299 217.978 157.087 219.146C158.875 220.315 160.285 221.979 161.143 223.935C161.423 224.534 161.579 225.184 161.603 225.845Z" fill="#07B977"/>
<path d="M107.783 230.635H84.7831C82.6501 230.637 80.5631 230.019 78.7751 228.856C76.9871 227.693 75.5761 226.035 74.7131 224.085C74.4371 223.475 74.2901 222.814 74.2831 222.145C74.2821 221.515 74.4051 220.892 74.6451 220.31C74.8851 219.728 75.2381 219.2 75.6831 218.755C76.1281 218.31 76.6571 217.957 77.2391 217.717C77.8201 217.476 78.4441 217.353 79.0731 217.355H105.083C108.983 221.235 110.153 226.665 107.783 230.635Z" fill="#D7F0E7"/>
<path d="M107.783 230.634C107.68 230.896 107.538 231.142 107.363 231.364C104.053 235.944 96.8331 236.364 91.2231 232.274C90.5431 231.78 89.9041 231.232 89.3131 230.634C85.4631 226.754 84.3131 221.324 86.5831 217.354C86.7111 217.097 86.8621 216.853 87.0331 216.624C90.3731 212.074 97.5931 211.624 103.203 215.744C103.872 216.229 104.501 216.767 105.083 217.354C108.983 221.234 110.153 226.664 107.783 230.634Z" fill="white"/>
<path d="M124.103 259.735H94.773C92.639 259.736 90.5511 259.116 88.7631 257.951C86.9751 256.787 85.564 255.127 84.703 253.175C84.427 252.575 84.28 251.924 84.273 251.265C84.278 249.986 84.789 248.762 85.694 247.859C86.599 246.956 87.825 246.447 89.103 246.445H121.373C119.073 250.415 120.253 255.845 124.103 259.735Z" fill="#07B977"/>
<path d="M171.643 254.965C171.638 256.233 171.13 257.448 170.23 258.342C169.33 259.237 168.112 259.737 166.843 259.735H124.103C120.253 255.845 119.103 250.415 121.373 246.445H161.143C163.279 246.445 165.369 247.068 167.157 248.236C168.946 249.405 170.355 251.068 171.213 253.025C171.487 253.635 171.634 254.295 171.643 254.965Z" fill="#D7F0E7"/>
<path d="M142.613 259.733C142.481 259.986 142.327 260.227 142.153 260.453C138.853 265.033 131.633 265.453 126.013 261.363C125.339 260.865 124.701 260.32 124.103 259.733C120.253 255.843 119.103 250.413 121.373 246.443C121.505 246.186 121.659 245.942 121.833 245.713C125.163 241.163 132.383 240.773 138.003 244.833C138.668 245.323 139.296 245.861 139.883 246.443C143.763 250.323 144.983 255.783 142.613 259.733Z" fill="white"/>
<path d="M313.723 396.981H284.393C282.259 396.983 280.171 396.363 278.383 395.198C276.595 394.033 275.185 392.374 274.323 390.421C273.988 389.691 273.844 388.888 273.904 388.087C273.963 387.286 274.225 386.514 274.665 385.841C275.104 385.169 275.707 384.619 276.417 384.243C277.127 383.867 277.92 383.677 278.723 383.691H310.983C308.693 387.661 309.873 393.091 313.723 396.981Z" fill="#07B977"/>
<path d="M430.163 392.215C430.162 392.842 430.037 393.464 429.795 394.043C429.554 394.623 429.201 395.149 428.756 395.592C428.311 396.035 427.784 396.386 427.203 396.625C426.623 396.864 426.001 396.986 425.373 396.985H313.723C309.873 393.095 308.723 387.665 310.993 383.695H419.663C421.799 383.695 423.889 384.318 425.677 385.486C427.466 386.655 428.875 388.318 429.733 390.275C430.008 390.885 430.154 391.545 430.163 392.215Z" fill="#D7F0E7"/>
<path d="M332.233 396.983C332.101 397.236 331.947 397.477 331.773 397.703C328.473 402.293 321.253 402.703 315.633 398.613C314.959 398.115 314.321 397.57 313.723 396.983C309.873 393.093 308.723 387.663 310.993 383.693C311.124 383.436 311.278 383.192 311.453 382.963C314.793 378.413 322.013 378.023 327.623 382.083C328.288 382.573 328.916 383.111 329.503 383.693C333.383 387.573 334.563 393.033 332.233 396.983Z" fill="white"/>
<path d="M857.783 541.023C861.507 539.554 865.108 537.792 868.553 535.753C891.683 521.903 906.753 490.844 902.163 464.104C899.873 450.834 891.233 441.584 880.113 434.604C872.343 429.784 863.983 425.843 857.043 419.893C833.943 400.163 852.423 369.473 839.633 345.893C824.083 317.293 799.083 300.524 766.143 301.614C750.333 302.134 729.803 305.763 716.893 294.193C710.113 288.193 708.693 278.413 706.123 270.253C703.226 261.051 700.81 251.705 698.883 242.253C697.152 233.292 693.891 224.697 689.243 216.843C684.213 208.323 677.118 201.208 668.613 196.153C652.613 186.923 630.303 186.073 614.223 195.563C611.934 196.924 609.766 198.48 607.743 200.213C592.863 212.973 585.743 234.464 586.083 253.624" stroke="black" stroke-width="4.82" stroke-miterlimit="10"/>
<path d="M616.303 230.171C615.473 235.811 612.043 241.011 605.953 242.571C599.073 244.321 595.423 251.021 593.483 257.751C590.726 267.625 591.432 278.144 595.483 287.561C599.243 296.421 605.943 306.561 617.273 308.151C638.003 311.151 648.323 302.371 648.323 302.371" stroke="black" stroke-width="4.82" stroke-miterlimit="10"/>
<path d="M633.573 260.304C631.607 260.304 630.013 258.71 630.013 256.744C630.013 254.778 631.607 253.184 633.573 253.184C635.539 253.184 637.133 254.778 637.133 256.744C637.133 258.71 635.539 260.304 633.573 260.304Z" fill="black"/>
<path d="M602.263 257.943C600.297 257.943 598.703 256.35 598.703 254.383C598.703 252.417 600.297 250.823 602.263 250.823C604.229 250.823 605.823 252.417 605.823 254.383C605.823 256.35 604.229 257.943 602.263 257.943Z" fill="black"/>
<path d="M641.833 523.091C636.653 526.271 640.833 531.511 644.593 533.281C651.053 536.281 659.403 536.811 666.443 537.651C719.973 543.951 737.843 617.431 771.443 631.091C805.043 644.751 895.213 654.731 851.233 501.951C817.373 384.371 735.733 352.301 701.603 339.641C697.929 338.291 694.343 336.714 690.863 334.921C671.193 324.701 661.983 313.761 659.093 299.651C659.093 299.651 659.093 299.651 659.093 299.591C656.593 287.481 658.273 276.361 660.723 269.931C662.128 266.535 663.219 263.017 663.983 259.421C665.803 249.191 657.903 250.631 635.723 251.851C625.543 252.451 619.783 247.851 617.303 241.991C617.06 241.483 616.862 240.954 616.713 240.411C615.67 237.093 615.545 233.554 616.353 230.171" stroke="black" stroke-width="4.82" stroke-miterlimit="10"/>
<path d="M618.233 257.605C618.233 257.605 614.493 271.275 614.873 273.295C615.253 275.315 620.043 273.755 620.043 273.755" stroke="black" stroke-width="4.82" stroke-miterlimit="10"/>
<path d="M620.813 286.273C627.983 290.133 636.273 287.703 639.513 281.273" stroke="black" stroke-width="4.82" stroke-miterlimit="10"/>
<path d="M627.856 271.289C621.178 264.984 620.752 254.589 626.905 248.071C633.058 241.553 643.46 241.38 650.139 247.685C656.817 253.99 657.243 264.385 651.09 270.903C644.937 277.421 634.535 277.594 627.856 271.289Z" stroke="black" stroke-width="4.82" stroke-miterlimit="10"/>
<path d="M586.326 267.5C579.647 261.195 579.221 250.8 585.374 244.282C591.527 237.764 601.929 237.591 608.608 243.896C615.287 250.201 615.713 260.596 609.56 267.114C603.407 273.632 593.004 273.805 586.326 267.5Z" stroke="black" stroke-width="4.82" stroke-miterlimit="10"/>
<path d="M597.123 244.293C594.313 244.275 591.602 245.333 589.547 247.25C587.492 249.167 586.249 251.798 586.073 254.603C585.894 257.658 586.907 260.662 588.899 262.985C590.891 265.307 593.707 266.766 596.753 267.053C597.103 267.053 597.463 267.053 597.813 267.053C600.607 267.073 603.304 266.029 605.357 264.133C607.409 262.236 608.662 259.63 608.863 256.843C609.056 253.78 608.049 250.763 606.055 248.43C604.062 246.096 601.238 244.631 598.183 244.343C597.833 244.343 597.473 244.343 597.123 244.343V244.293ZM597.123 241.933C597.543 241.933 597.973 241.933 598.403 241.993C602.073 242.342 605.464 244.099 607.864 246.897C610.264 249.694 611.486 253.313 611.273 256.993C611.049 260.405 609.532 263.604 607.031 265.936C604.529 268.268 601.233 269.558 597.813 269.543C597.393 269.543 596.963 269.543 596.533 269.483C592.862 269.14 589.469 267.383 587.07 264.584C584.67 261.785 583.452 258.163 583.673 254.483C583.873 251.056 585.378 247.835 587.88 245.484C590.382 243.133 593.69 241.83 597.123 241.843V241.933Z" fill="white"/>
<path d="M622.593 258.002L613.873 257.202" stroke="black" stroke-width="4.82" stroke-miterlimit="10"/>
<path d="M638.643 247.764C635.748 247.736 632.952 248.821 630.834 250.796C628.716 252.77 627.437 255.483 627.263 258.374C627.076 261.521 628.118 264.618 630.17 267.012C632.222 269.406 635.124 270.909 638.263 271.204C638.623 271.204 638.993 271.204 639.353 271.204C642.251 271.23 645.048 270.143 647.167 268.166C649.286 266.19 650.566 263.476 650.743 260.584C650.928 257.438 649.885 254.344 647.833 251.952C645.781 249.561 642.88 248.059 639.743 247.764C639.378 247.727 639.01 247.711 638.643 247.714V247.764ZM638.643 245.304C639.083 245.304 639.523 245.324 639.963 245.364C643.745 245.715 647.24 247.531 649.702 250.423C652.165 253.315 653.399 257.054 653.143 260.844C652.914 264.34 651.36 267.618 648.797 270.007C646.235 272.397 642.857 273.719 639.353 273.704C638.923 273.704 638.483 273.704 638.043 273.644C634.279 273.29 630.799 271.487 628.34 268.615C625.88 265.743 624.634 262.028 624.863 258.254C625.09 254.758 626.642 251.481 629.203 249.091C631.764 246.701 635.14 245.379 638.643 245.394V245.304Z" fill="white"/>
<path d="M587.904 265.825C582.178 260.419 581.816 251.501 587.097 245.907C592.378 240.312 601.302 240.16 607.029 245.566C612.756 250.972 613.117 259.89 607.836 265.484C602.555 271.079 593.631 271.231 587.904 265.825Z" fill="#07B977"/>
<path d="M626.433 270.201C620.656 264.74 620.294 255.741 625.625 250.101C630.957 244.46 639.962 244.315 645.739 249.776C651.517 255.236 651.878 264.236 646.547 269.876C641.216 275.516 632.211 275.662 626.433 270.201Z" fill="#07B977"/>
<path d="M674.253 352.762C678.653 348.172 682.473 341.422 684.983 331.652" stroke="black" stroke-width="4.82" stroke-miterlimit="10"/>
<path d="M633.573 352.644L628.723 331.654L623.453 309.034" stroke="black" stroke-width="4.82" stroke-miterlimit="10"/>
<path d="M613.748 436.22C611.884 427.074 616.927 418.324 625.012 416.676C633.097 415.028 641.162 421.107 643.026 430.252C644.89 439.398 639.847 448.148 631.762 449.795C623.677 451.443 615.612 445.365 613.748 436.22Z" fill="#D7F0E7"/>
<path d="M304.413 585.023L312.613 630.843C312.843 632.129 313.518 633.294 314.52 634.133C315.521 634.972 316.786 635.432 318.093 635.433H360.983C362.303 635.434 363.581 634.966 364.589 634.112C365.596 633.259 366.267 632.075 366.483 630.773L373.983 585.023H304.413Z" stroke="#CCE2DB" stroke-width="4.82" stroke-miterlimit="10"/>
<path d="M296.613 579.901C296.728 581.295 297.363 582.594 298.391 583.542C299.418 584.491 300.765 585.018 302.163 585.021H376.163C377.543 585.021 378.873 584.51 379.898 583.587C380.923 582.663 381.57 581.393 381.713 580.021C381.787 579.248 381.698 578.468 381.453 577.731C381.208 576.994 380.811 576.317 380.288 575.743C379.766 575.168 379.129 574.709 378.418 574.396C377.708 574.082 376.94 573.92 376.163 573.921H302.163C301.398 573.922 300.64 574.08 299.939 574.387C299.237 574.693 298.606 575.141 298.085 575.702C297.565 576.263 297.165 576.926 296.912 577.648C296.658 578.371 296.557 579.138 296.613 579.901Z" stroke="#CCE2DB" stroke-width="4.82" stroke-miterlimit="10"/>
<path d="M336.833 573.844C336.833 571.494 330.833 542.224 335.833 516.274C338.553 502.034 344.553 488.804 356.633 481.554" stroke="#CCE2DB" stroke-width="4.82" stroke-miterlimit="10"/>
<path d="M335.813 516.314C335.813 516.314 334.443 496.594 317.403 495.234" stroke="#CCE2DB" stroke-width="4.82" stroke-miterlimit="10"/>
<path d="M333.983 546.404C329.135 543.008 323.296 541.319 317.383 541.604" stroke="#CCE2DB" stroke-width="4.82" stroke-miterlimit="10"/>
<path d="M333.983 532.393C333.983 532.393 346.363 517.733 366.143 529.333" stroke="#CCE2DB" stroke-width="4.82" stroke-miterlimit="10"/>
<path d="M342.713 526.492C342.713 526.492 370.593 501.032 376.053 535.492C376.053 535.492 368.203 540.602 356.613 535.492C345.023 530.382 342.713 526.492 342.713 526.492Z" stroke="#CCE2DB" stroke-width="4.82" stroke-miterlimit="10"/>
<path d="M329.683 501.234C329.683 501.234 330.683 489.774 317.403 486.024C304.123 482.274 296.593 497.964 296.593 497.964C296.593 497.964 306.843 509.294 329.683 501.234Z" stroke="#CCE2DB" stroke-width="4.82" stroke-miterlimit="10"/>
<path d="M326.603 541.594C326.603 541.594 327.063 530.004 311.603 532.394C296.143 534.784 293.603 547.974 293.603 547.974C293.603 547.974 318.923 557.254 326.603 542.814" stroke="#CCE2DB" stroke-width="4.82" stroke-miterlimit="10"/>
<path d="M345.233 492.314C345.233 493.134 356.853 491.314 357.593 491.054C363.223 489.374 367.223 485.474 369.853 480.314C370.663 478.714 375.353 469.744 374.023 468.184C373.983 468.184 346.363 459.284 345.233 492.314Z" stroke="#CCE2DB" stroke-width="4.82" stroke-miterlimit="10"/>
<path d="M72.623 495.421C81.344 521.427 95.781 545.148 114.873 564.841C150.983 602.621 205.253 629.681 273.873 636.011V495.421H72.623Z" stroke="#CCE2DB" stroke-width="4.82" stroke-miterlimit="10"/>
<path d="M114.873 564.843C150.983 602.623 205.253 629.683 273.873 636.013V564.843H114.873Z" stroke="#CCE2DB" stroke-width="4.82" stroke-miterlimit="10"/>
<path d="M135.763 531.517C135.763 525.909 140.309 521.363 145.918 521.363C151.526 521.363 156.073 525.909 156.073 531.517C156.073 537.126 151.526 541.673 145.918 541.673C140.309 541.673 135.763 537.126 135.763 531.517Z" stroke="#CCE2DB" stroke-width="4.82" stroke-miterlimit="10"/>
</svg>
