<svg width="906" height="884" viewBox="0 0 906 884" fill="none" xmlns="http://www.w3.org/2000/svg">
<path d="M235 338.172C235 338.172 249.72 375.302 298.42 377.122" stroke="#CCE2DB" stroke-width="5.32" stroke-miterlimit="10"/>
<path d="M355.6 370.63C355.6 370.63 383.6 363.29 401.99 335.18" stroke="#CCE2DB" stroke-width="5.32" stroke-miterlimit="10"/>
<path d="M769.07 880.148C771.87 878.408 789.4 880.148 792.7 880.148C799.881 880.18 807.046 879.493 814.09 878.098C902.37 860.398 910.21 731.098 899.04 644.268C896.657 626.06 892.572 608.114 886.84 590.668C870.31 539.588 840.69 492.268 804.51 453.428C791.06 438.998 774.82 426.288 766 408.198C749.86 375.068 762.49 336.648 770 303.028C780 257.908 784.19 208.778 734.92 186.328C631.42 139.148 516.92 223.818 516.92 223.818" stroke="#CCE2DB" stroke-width="5.32" stroke-miterlimit="10"/>
<path d="M76.7001 720.73C70.8801 749.5 70.5801 779.61 80.4801 807.11C89.3201 831.66 106.78 856.881 129.61 870.901C142.696 878.854 158.11 882.09 173.29 880.07" stroke="#CCE2DB" stroke-width="5.32" stroke-miterlimit="10"/>
<path d="M298.4 444.029V347.759V344.919V321.969V313.419V266.879" stroke="#CCE2DB" stroke-width="5.32" stroke-miterlimit="10"/>
<path d="M361.89 426.679V379.369C361.893 377.436 361.286 375.551 360.157 373.983C359.028 372.414 357.434 371.24 355.6 370.629L328.16 361.479V266.879" stroke="#CCE2DB" stroke-width="5.32" stroke-miterlimit="10"/>
<path d="M298.4 347.762C306.27 349.992 319.88 352.972 328.14 351.232" stroke="#CCE2DB" stroke-width="5.32" stroke-miterlimit="10"/>
<path d="M298.4 322C308.19 322.78 320.4 323.63 328.16 325.65" stroke="#CCE2DB" stroke-width="5.32" stroke-miterlimit="10"/>
<path d="M298.4 344.919C307.2 343.679 320.04 340.979 328.16 337.469" stroke="#CCE2DB" stroke-width="5.32" stroke-miterlimit="10"/>
<path d="M298.4 313.422C315.53 308.672 324.01 302.812 328.16 297.922" stroke="#CCE2DB" stroke-width="5.32" stroke-miterlimit="10"/>
<path d="M149.84 289.828L112.67 292.848" stroke="#CCE2DB" stroke-width="5.32" stroke-miterlimit="10"/>
<path d="M145.16 273.441L108.34 276.421" stroke="#CCE2DB" stroke-width="5.32" stroke-miterlimit="10"/>
<path d="M549.47 240.671L710.58 227.581C712.789 227.405 714.978 228.112 716.666 229.548C718.353 230.985 719.402 233.032 719.58 235.241C719.58 235.451 719.58 235.671 719.58 235.921C719.584 238.023 718.794 240.049 717.368 241.594C715.942 243.138 713.986 244.088 711.89 244.251L556.14 256.881" stroke="#CCE2DB" stroke-width="5.32" stroke-miterlimit="10"/>
<path d="M302.8 277.449L267.96 280.249" stroke="#CCE2DB" stroke-width="5.32" stroke-miterlimit="10"/>
<path d="M394.56 270L325.32 275.61" stroke="#CCE2DB" stroke-width="5.32" stroke-miterlimit="10"/>
<path d="M299.64 260.922L274.28 262.982" stroke="#CCE2DB" stroke-width="5.32" stroke-miterlimit="10"/>
<path d="M387.22 253.828L325.75 258.788" stroke="#CCE2DB" stroke-width="5.32" stroke-miterlimit="10"/>
<path d="M222.6 738.461C223.27 738.081 223.93 737.691 224.6 737.291C230.7 733.601 231.5 728.221 226.44 723.481C204.84 703.261 179.76 685.961 152.26 674.861C128.2 665.141 99.8 659.061 73.84 662.291C61.84 663.791 31.78 669.721 39.55 688.371C41.22 692.371 44.38 695.551 47.55 698.511C89.46 737.491 167.47 769.931 222.6 738.461Z" stroke="#CCE2DB" stroke-width="5.32" stroke-miterlimit="10"/>
<path d="M42.4 693.711C2.64004 646.321 51.4 515.471 72.23 460.061C81.17 436.221 81.63 410.361 80.14 385.181C79.68 376.241 68.58 320.691 84.58 322.251C87.1 322.501 89.08 324.311 90.75 326.251C95.405 331.624 98.259 338.322 98.91 345.401C101.806 342.514 105.116 340.074 108.73 338.161C110.755 337.072 112.869 336.159 115.05 335.431C116.748 334.703 118.598 334.401 120.44 334.551C126.22 335.551 127.96 343.171 126.75 348.951C124.7 359.411 116.15 363.461 110.61 371.581C109.896 372.64 109.268 373.753 108.73 374.911C104.55 383.571 105.04 394.141 105.73 403.651C106.733 415.802 109.853 427.685 114.95 438.761" stroke="#CCE2DB" stroke-width="5.32" stroke-miterlimit="10"/>
<path d="M213.3 616.922C223.48 649.662 229.41 683.672 229.76 718.122C229.83 721.702 229.76 725.252 229.66 728.832V729.252C229.674 729.92 229.647 730.587 229.58 731.252" stroke="#CCE2DB" stroke-width="5.32" stroke-miterlimit="10"/>
<path d="M108.73 374.908C108.73 374.908 82.16 368.358 76.73 356.578" stroke="#CCE2DB" stroke-width="5.32" stroke-miterlimit="10"/>
<path d="M108.73 338.17C108.73 338.17 126.65 262.17 89.5501 267.17C52.4501 272.17 76.7001 325 76.7001 325" stroke="#CCE2DB" stroke-width="5.32" stroke-miterlimit="10"/>
<path d="M90.69 298.429C98.416 298.429 104.68 292.166 104.68 284.439C104.68 276.713 98.416 270.449 90.69 270.449C82.964 270.449 76.7 276.713 76.7 284.439C76.7 292.166 82.964 298.429 90.69 298.429Z" stroke="#CCE2DB" stroke-width="5.32" stroke-miterlimit="10"/>
<path d="M650.42 498.329C653.813 501.397 658.226 503.093 662.8 503.089C672.09 503.089 679.65 496.349 679.65 488.089C679.65 468.582 679.627 449.082 679.58 429.589C679.58 417.999 682.06 395.969 662.8 395.969C649.6 395.969 645.91 406.359 645.95 416.219V426.969" stroke="#CCE2DB" stroke-width="5.32" stroke-miterlimit="10"/>
<path d="M650.42 374.789C652.032 376.444 653.957 377.762 656.081 378.669C658.206 379.575 660.49 380.051 662.8 380.069C665.008 380.071 667.194 379.637 669.234 378.792C671.275 377.948 673.128 376.71 674.689 375.149C676.251 373.588 677.489 371.734 678.333 369.694C679.177 367.654 679.611 365.467 679.61 363.259C679.61 341.479 679.587 319.699 679.54 297.919C679.54 285.009 682.06 260.359 662.8 260.359C649.6 260.359 645.91 271.989 645.91 282.989V291.989" stroke="#CCE2DB" stroke-width="5.32" stroke-miterlimit="10"/>
<path d="M659.84 395.922H665.78V377.122H659.84V395.922Z" fill="#D7F0E7"/>
<path d="M633.62 528.73C642.91 528.73 650.44 521.99 650.44 513.68C650.44 494.18 650.417 474.684 650.37 455.19C650.37 443.61 652.87 421.57 633.62 421.57C620.43 421.57 616.73 431.98 616.74 441.82C616.78 464.167 616.8 486.524 616.8 508.89C616.8 512.43 616.8 516.04 618.1 519.39C620.26 525.08 627 528.73 633.62 528.73Z" stroke="#CCE2DB" stroke-width="5.32" stroke-miterlimit="10"/>
<path d="M633.61 405.74C638.071 405.74 642.349 403.967 645.504 400.813C648.658 397.659 650.43 393.38 650.43 388.92C650.43 367.14 650.407 345.36 650.36 323.58C650.36 310.64 652.86 286.02 633.61 286.02C620.42 286.02 616.72 297.65 616.73 308.64C616.73 333.613 616.75 358.586 616.79 383.56C616.79 387.56 616.79 391.56 618.08 395.3C620.25 401.65 627 405.74 633.61 405.74Z" stroke="#CCE2DB" stroke-width="5.32" stroke-miterlimit="10"/>
<path d="M630.65 421.559H636.59V402.759H630.65V421.559Z" fill="#D7F0E7"/>
<path d="M635 286.251C630.07 274.121 630.93 261.921 633 250.641C633.71 246.841 634.56 243.191 635.37 239.641C636.155 236.244 638.063 233.212 640.785 231.035C643.507 228.857 646.884 227.661 650.37 227.641H650.44C654.271 227.639 657.964 229.065 660.8 231.641" stroke="#CCE2DB" stroke-width="5.32" stroke-miterlimit="10"/>
<path d="M666.17 248C665.92 256 662.8 260.38 662.8 260.38" stroke="#CCE2DB" stroke-width="5.32" stroke-miterlimit="10"/>
<path d="M552.86 812.07C552.38 815.267 551.426 818.374 550.03 821.29C549.85 817.64 552.86 812.07 552.86 812.07Z" fill="#2E2E2E"/>
<path d="M486.18 808.27C487.03 800.61 491.99 790.18 496.18 778.27C492.85 789.26 487.7 800.43 486.18 808.27Z" fill="#2E2E2E"/>
<path d="M499 818.698C496.51 820.048 493.29 821.218 489.63 818.488C492.68 819.384 495.913 819.457 499 818.698Z" fill="#2E2E2E"/>
<path d="M497.92 768.999C497.923 766.444 497.399 763.915 496.38 761.572C495.361 759.228 493.87 757.12 492 755.379C495.15 757.869 498.24 761.659 497.92 768.999Z" fill="#2E2E2E"/>
<path d="M503.52 817.101C504.746 816.494 505.912 815.771 507 814.941C505.95 816.647 505.126 818.483 504.55 820.401C504.44 818.421 504.09 817.461 503.52 817.101Z" fill="#2E2E2E"/>
<path d="M519.73 828.809C515.44 831.329 510.73 831.809 507.73 829.199C511.89 831.219 516.19 830.329 519.73 828.809Z" fill="#2E2E2E"/>
<path d="M527.93 827.43C527.15 826.43 526.3 825.69 524.93 825.94C525.53 825.55 526.03 825.19 526.45 824.94C528 823.88 527.68 825.55 527.93 827.43Z" fill="#2E2E2E"/>
<path d="M532.43 831.11C536.72 830.76 542.19 830.3 546.48 826.18C546.23 826.57 546.02 827.04 545.77 827.53C543.39 832.46 537.19 831.11 532.43 831.11Z" fill="#2E2E2E"/>
<path d="M551.27 823.909C550.338 823.677 549.362 823.677 548.43 823.909C549.035 823.081 549.57 822.205 550.03 821.289C549.999 821.795 550.096 822.301 550.313 822.759C550.529 823.217 550.859 823.613 551.27 823.909Z" fill="#2E2E2E"/>
<path d="M555.77 824.871C554.99 824.731 554.28 824.551 553.64 824.411C558.18 824.161 563.04 824.341 566.84 820.191C564 823.491 560.1 825.721 555.77 824.871Z" fill="#2E2E2E"/>
<path d="M568 818.701C568.465 818.007 568.882 817.282 569.25 816.531C568.882 817.281 568.464 818.006 568 818.701Z" fill="#2E2E2E"/>
<path d="M571 812.211C570.79 812.901 570.56 813.561 570.33 814.211C570.592 813.558 570.816 812.89 571 812.211Z" fill="#2E2E2E"/>
<path d="M569.26 816.532C569.654 815.764 570.007 814.976 570.32 814.172C570.023 814.983 569.668 815.771 569.26 816.532Z" fill="#2E2E2E"/>
<path d="M571.31 783.581C571.125 783.28 570.882 783.019 570.596 782.813C570.309 782.607 569.984 782.46 569.64 782.381L571.91 781.211C571.601 781.969 571.399 782.767 571.31 783.581Z" fill="#2E2E2E"/>
<path d="M734.9 709.551C703.51 741.191 662.79 751.481 662.79 751.481C664.53 779.481 658.43 873.651 657.97 877.761C657.51 881.871 634.87 880.491 634.87 880.491L537.47 880.351C540.47 879.461 543.32 878.541 545.98 877.511C593.19 859.511 596.32 823.421 589.4 797.421C585.5 782.731 581.84 778.421 578.76 777.871C587.27 773.871 600.57 768.261 613.45 765.141C634.73 760.001 705 740.801 727.38 715.651C729.566 713.252 732.102 711.195 734.9 709.551Z" fill="#2E2E2E"/>
<path d="M726.5 510.001C726.5 510.001 693 479.631 655.31 520.421C628.74 549.191 627.67 571.141 629.38 581.611C630.32 583.758 630.953 586.027 631.26 588.351L634.63 590.621L632.32 590.401C636.51 598.881 650.94 631.911 633.03 653.331C612.31 678.091 586.38 710.331 516.4 737.611C516.4 737.611 481.64 727.401 472.17 751.161C472.17 751.161 483.41 749.161 487.95 752.471C467.06 750.421 397.95 752.011 397.95 752.011C397.95 752.011 355.07 758.361 344.46 797.011C333.85 835.661 348.05 843.801 369.19 868.591C373.19 873.241 380.19 877.111 389.3 880.161L336.02 880.091L340.53 872.251C345.53 860.041 333.4 857.701 333.4 857.701C321.05 856.641 324.24 849.401 324.24 849.401C311.12 766.901 313.82 643.281 317.65 611.921C321.48 580.561 315.87 589.681 315.87 589.681C305.98 600.391 248.41 611.921 248.41 611.921C275.61 595.461 285.01 573.921 289.73 523.101C294.34 473.721 267.88 455.531 266.35 454.501C266.339 454.496 266.327 454.494 266.315 454.494C266.303 454.494 266.291 454.496 266.28 454.501L369.04 423.601L438.39 412.891C437.33 416.161 435.52 415.311 432.04 415.801L425.91 416.691C426.147 416.705 426.375 416.781 426.573 416.91C426.772 417.04 426.932 417.22 427.04 417.431C427.124 417.682 427.172 417.945 427.18 418.211C427.86 432.551 437.18 444.921 449.25 452.131C465.95 462.131 489.47 461.881 506.57 452.761C518.84 446.201 525.05 433.611 524.48 419.951C595.82 428.731 677 456.251 726.5 510.001Z" fill="#2E2E2E"/>
<path d="M426.3 749.922L440.17 759.822L439 759.072C429.027 753.109 417.619 749.974 406 750.002L426.3 749.922Z" fill="#D7F0E7"/>
<path d="M526.4 821.681C526.37 822.149 526.251 822.607 526.05 823.031C526 821.251 526.44 820.261 526.4 821.681Z" fill="#D7F0E7"/>
<path d="M592.06 814.269C592.055 831.324 585.278 847.678 573.218 859.738C561.159 871.797 544.804 878.574 527.75 878.579H406C419.353 878.581 432.376 874.425 443.26 866.688C454.143 858.952 462.349 848.019 466.736 835.407C471.124 822.795 471.476 809.13 467.744 796.309C464.012 783.487 456.381 772.146 445.91 763.859C444.066 762.424 442.147 761.089 440.16 759.859H496.16C497.86 762.659 500.27 769.999 494.32 786.179C486.16 808.309 482.01 817.389 493.32 819.339C504.63 821.289 506.32 810.339 506.98 814.979C507.64 819.619 499.49 823.489 507.69 829.239C515.03 834.379 524.15 827.359 526.03 823.069C526.03 826.219 527.52 831.829 535.64 831.329C548.41 830.549 550.64 818.559 550.64 818.559C550.86 820.249 551.646 821.815 552.87 823.001C554.094 824.187 555.684 824.923 557.38 825.089C563.51 825.799 573.7 817.209 572.74 804.229C571.78 791.249 568.02 780.679 576.64 777.839C577.721 777.524 578.691 776.91 579.44 776.069C587.662 787.105 592.09 800.507 592.06 814.269Z" fill="#D7F0E7"/>
<path d="M546.83 335.46C546.677 335.48 546.523 335.48 546.37 335.46C546.8 337.55 547.58 339.78 548.11 342.02C548.529 343.699 548.708 345.43 548.64 347.16C548.07 355.29 542.33 359.68 534.52 359.9C534.714 361.762 534.34 363.638 533.447 365.284C532.555 366.929 531.186 368.266 529.52 369.12C525.34 371.32 518.52 370.82 515.33 366.96C511.61 362.45 513.45 356.88 515.73 351.96C516.54 350.22 517.36 348.59 518.03 347.1C518.85 345.25 519.56 343.41 520.19 341.53C522.419 334.581 524.141 327.479 525.34 320.28C526.827 313.023 527.809 305.672 528.28 298.28C527.79 296.47 528.1 293.88 527.39 292C526.36 289.084 524.483 286.542 522 284.7C516.89 280.94 510.11 281.19 504.69 277.86C499.788 274.8 495.921 270.337 493.59 265.05C493.12 263.95 492.7 262.53 492.06 261.29C491.764 260.624 491.327 260.031 490.78 259.55C488.33 257.5 486.92 261.11 485.43 262.55C483.892 263.973 482.068 265.051 480.079 265.712C478.091 266.372 475.984 266.6 473.9 266.38C472.326 266.175 470.793 265.723 469.36 265.04C468.306 264.465 467.32 263.774 466.42 262.98C465.358 261.941 464.119 261.101 462.76 260.5C460.21 259.5 460.07 263.76 459.71 265.21C459 267.84 457.76 269.97 455.28 271.21C453.9 271.888 452.387 272.254 450.85 272.28C449.059 272.345 447.27 272.105 445.56 271.57C443.912 271.078 442.346 270.346 440.91 269.4C440.653 269.223 440.351 269.123 440.04 269.11C439.728 269.098 439.42 269.174 439.15 269.33C438.88 269.486 438.659 269.715 438.514 269.991C438.369 270.267 438.305 270.579 438.33 270.89C438.82 284.76 425.84 289.59 420.52 290.97C418.52 312.97 424.52 337.33 436.52 356.2C436.071 359.013 434.926 361.67 433.19 363.93C424.42 366.13 414.31 363.76 410.52 356.2C406.52 348.2 407.04 337.01 413.29 331.26C408.96 330.6 407.74 324.19 410.23 320.43C410.44 320.08 410.55 319.87 410.4 319.51C409.87 318.06 403.5 316.86 401.76 316.3C399.276 315.407 397.034 313.949 395.211 312.039C393.389 310.13 392.036 307.823 391.26 305.3C387.57 293.13 396.93 280.15 408.64 277.2C405.16 271.07 400.55 266.1 398.64 259.01C396.73 251.92 397.82 244.5 403.25 239.21C405.444 237.119 408.124 235.607 411.048 234.811C413.972 234.014 417.049 233.959 420 234.65C421.726 235.907 423.256 237.414 424.54 239.12C423.748 237.956 423.116 236.691 422.66 235.36C426.627 236.711 430.107 239.206 432.66 242.53C428.09 235.68 429.79 226.35 434.94 220.32C441.14 213.05 453.34 211.45 461.86 215.18C462.475 215.467 463.067 215.801 463.63 216.18C464.45 217.18 465.26 218.18 466.08 219.12C466.174 218.864 466.281 218.614 466.4 218.37C468.122 220.144 469.754 222.003 471.29 223.94C476.83 208.23 498.78 208.19 510.38 216.39C513.113 218.336 515.35 220.898 516.91 223.87C517.504 226.479 517.456 229.193 516.77 231.78C516.06 234.27 516.63 236.15 518.22 236.68C519.42 236.97 520.684 236.806 521.77 236.22C526.03 234.3 529.54 231.96 534.47 232.49C550.61 234.2 562.31 255.12 552.77 268.78C552.207 269.629 551.567 270.426 550.86 271.16C549.51 272.54 546.49 274.07 545.86 275.98C545.843 276.025 545.843 276.075 545.86 276.12C544.66 280.12 553.56 281.05 555.94 282.12C576.88 290.87 572.44 334.11 546.83 335.46Z" fill="#07B977"/>
<path d="M425.91 416.631L432.04 415.741C433.729 415.507 435.319 414.805 436.631 413.715C437.942 412.625 438.922 411.189 439.46 409.571C439.675 409.012 439.816 408.427 439.88 407.831L439.95 407.341L440.73 401.451L446.02 368.711" stroke="black" stroke-width="5.32" stroke-miterlimit="10"/>
<path d="M515.33 367L515.83 411.7V413.12C515.855 414.564 516.377 415.954 517.308 417.058C518.239 418.162 519.521 418.911 520.94 419.18L524.52 419.89" stroke="black" stroke-width="5.32" stroke-miterlimit="10"/>
<path d="M420.45 290.91C418 317.3 427.15 347.13 444.32 366.78C476.32 403.43 503.32 366.78 503.32 366.78" stroke="black" stroke-width="5.32" stroke-miterlimit="10"/>
<path d="M528.6 299.088C527.67 297.338 528.22 294.188 527.41 291.978C526.354 289.077 524.474 286.546 522 284.698C516.88 280.958 510.1 281.188 504.69 277.878C499.765 274.802 495.88 270.314 493.54 264.998C492.8 263.318 492.22 260.738 490.76 259.518C488.31 257.518 486.89 261.068 485.38 262.518C483.26 264.497 480.593 265.791 477.727 266.233C474.861 266.676 471.928 266.245 469.31 264.998C466.88 263.808 465.21 261.408 462.68 260.458C460.15 259.508 460.01 263.698 459.63 265.168C458.94 267.778 457.7 269.908 455.21 271.168C450.78 273.358 444.72 271.918 440.85 269.328C440.59 269.153 440.286 269.054 439.972 269.043C439.658 269.033 439.348 269.111 439.077 269.268C438.805 269.426 438.584 269.657 438.437 269.934C438.291 270.212 438.226 270.526 438.25 270.838C438.86 288.288 418.2 291.398 418.2 291.398" stroke="black" stroke-width="5.32" stroke-miterlimit="10"/>
<path d="M449.59 329.279C459.918 329.279 468.29 320.907 468.29 310.579C468.29 300.251 459.918 291.879 449.59 291.879C439.262 291.879 430.89 300.251 430.89 310.579C430.89 320.907 439.262 329.279 449.59 329.279Z" stroke="black" stroke-width="5.32" stroke-miterlimit="10"/>
<path d="M498.07 327.63C508.398 327.63 516.77 319.258 516.77 308.93C516.77 298.603 508.398 290.23 498.07 290.23C487.742 290.23 479.37 298.603 479.37 308.93C479.37 319.258 487.742 327.63 498.07 327.63Z" stroke="black" stroke-width="5.32" stroke-miterlimit="10"/>
<path d="M441.78 312.469C441.78 312.469 449.31 321.109 457.07 312.469" stroke="black" stroke-width="5.32" stroke-miterlimit="10"/>
<path d="M490.42 312.469C490.42 312.469 497.96 321.109 505.71 312.469" stroke="black" stroke-width="5.32" stroke-miterlimit="10"/>
<path d="M468.3 310.582C468.3 310.582 472.54 303.682 479.36 308.932" stroke="black" stroke-width="5.32" stroke-miterlimit="10"/>
<path d="M459.7 282.84C459.7 282.84 440.29 268 424 282" stroke="black" stroke-width="5.32" stroke-miterlimit="10"/>
<path d="M516.48 275.05C516.48 275.05 493.43 267 482.3 285.32" stroke="black" stroke-width="5.32" stroke-miterlimit="10"/>
<path d="M435.84 355.539C435.795 358.646 434.775 361.66 432.923 364.154C431.07 366.649 428.481 368.498 425.52 369.439C415.94 372.279 405.8 365.079 401.65 356.779C400.132 353.912 399.438 350.681 399.644 347.444C399.851 344.207 400.95 341.09 402.82 338.439C402.988 338.173 403.099 337.875 403.148 337.564C403.197 337.254 403.182 336.936 403.105 336.631C403.027 336.326 402.888 336.04 402.697 335.791C402.505 335.541 402.265 335.333 401.99 335.179C400.128 334.061 398.588 332.479 397.521 330.588C396.453 328.697 395.895 326.561 395.9 324.389C395.902 323.474 396.003 322.563 396.2 321.669C396.261 321.343 396.254 321.008 396.178 320.685C396.103 320.361 395.961 320.057 395.761 319.792C395.562 319.527 395.309 319.306 395.02 319.144C394.731 318.981 394.41 318.881 394.08 318.849C393.102 318.764 392.132 318.6 391.18 318.359C388.512 317.413 386.103 315.856 384.144 313.812C382.186 311.768 380.732 309.295 379.9 306.589C375.9 293.499 386.01 279.519 398.6 276.369C394.84 269.769 389.87 264.449 387.81 256.789C385.75 249.129 386.96 241.209 392.81 235.499C401.86 226.639 417.21 229.399 424.52 239.119C419.59 231.739 421.44 221.699 426.97 215.209C433.64 207.409 446.76 205.709 455.91 209.679C460.28 211.599 463.08 215.569 466.06 219.079C472.06 202.229 495.61 202.079 508.06 210.959C514.59 215.599 518.85 224.049 516.72 231.739C515.62 235.649 517.64 237.989 521.72 236.179C525.98 234.299 529.49 231.919 534.42 232.449C551.52 234.259 563.65 257.669 550.81 271.119C549.46 272.539 546.44 274.029 545.81 275.939C544.35 280.019 553.44 281.009 555.81 282.039C577.02 290.949 572.37 334.649 546.37 335.529C547.15 339.259 548.93 343.369 548.64 347.199C548.07 355.329 542.33 359.719 534.52 359.969C535.09 363.629 532.82 367.419 529.52 369.159C525.34 371.389 518.52 370.859 515.33 366.999C510.33 360.899 515.48 352.909 518.03 347.099C521.79 338.579 523.63 329.399 525.34 320.279C526.897 312.726 527.9 305.069 528.34 297.369V297.049" stroke="black" stroke-width="5.32" stroke-miterlimit="10"/>
<path d="M232 102.92L224.38 132.61H224.59L227.18 125.84L281.41 83.91L286.91 62.31L232 102.92ZM251.75 41C250.359 41.7393 249.138 42.762 248.167 44.002C247.195 45.242 246.495 46.672 246.11 48.2L234.93 91.68L290.3 48.9L298.67 16L251.75 41ZM261.07 58C260.4 61.41 258.31 63.89 256.39 63.53C254.47 63.17 253.48 60.06 254.19 56.62C254.9 53.18 256.96 50.69 258.88 51.08C260.8 51.47 261.75 54.5 261.07 57.94V58ZM233.07 130.4L234.67 129.97C235.303 129.704 235.984 129.571 236.67 129.58C237.428 129.583 238.175 129.756 238.857 130.085C239.539 130.415 240.139 130.893 240.612 131.485C241.085 132.077 241.419 132.767 241.59 133.505C241.761 134.243 241.764 135.01 241.6 135.75L232.45 172L261.04 164.2L278.1 97L233.07 130.4Z" fill="#D7F0E7"/>
<path d="M215.78 481.839C219.68 451.519 221.5 420.599 225.31 390.049L225.93 385.269C227 377.009 228.26 368.749 229.8 360.579C229.851 360.185 229.925 359.794 230.02 359.409C230.9 354.569 231.87 349.769 233.02 344.959C236.29 330.569 244.59 320.039 252.69 308.319L253.2 307.059C270.709 281.569 280.405 251.526 281.1 220.609C281.29 209.429 280.85 187.329 268.03 182.749C260.83 180.169 253.2 185.199 249.21 190.949C247.543 193.317 246.198 195.896 245.21 198.619" stroke="black" stroke-width="5.32" stroke-miterlimit="10"/>
<path d="M151.54 332.352C138.8 378.002 117.59 421.002 107.16 467.282C97.59 509.672 94.71 571.362 134.87 599.802C170.16 624.802 221.49 618.642 260.93 609.102C272.411 606.372 283.713 602.935 294.77 598.812C303.29 595.652 311.27 591.502 319.6 588.102C319.6 588.102 304.31 740.382 325.6 857.012" stroke="black" stroke-width="5.32" stroke-miterlimit="10"/>
<path d="M151.55 332.361L153.66 324.781C156.469 314.728 155.792 304.021 151.74 294.401L147.56 284.401C144.83 276.081 143.98 272.051 147.4 263.911C149.025 260.073 151.302 256.544 154.13 253.481C162.39 244.371 174.02 239.841 185.99 238.301C197.96 236.761 211.2 237.961 220.84 245.721C227.38 251.001 233.54 263.541 229.3 271.721C226.19 277.721 219.62 279.421 214.02 277.281C212.062 276.554 210.299 275.384 208.87 273.861C202.27 266.941 187.87 265.531 182.93 272.251" stroke="black" stroke-width="5.32" stroke-miterlimit="10"/>
<path d="M156.89 232.28C155.89 228.42 156.04 223.54 158.34 217.28C161.64 208.33 171.25 202.45 180.62 198.59C184.04 197.17 187.44 196.01 190.45 195.1C200.67 191.95 211.88 190.29 222.73 191.39C226.398 191.751 230.027 192.444 233.57 193.46C237.655 194.644 241.563 196.369 245.19 198.59C254.19 204.08 260.19 212.44 263.86 223.41C267.03 232.87 268.26 244.12 260.4 250.03" stroke="black" stroke-width="5.32" stroke-miterlimit="10"/>
<path d="M230.62 264.231L233.41 269.801C236.9 273.631 241.74 276.051 248.41 274.391C261.41 271.151 262.71 260.391 260.41 250.071C260.022 248.199 259.521 246.353 258.91 244.541C255.91 235.451 251.14 228.131 244.54 222.791C239.846 218.998 234.425 216.207 228.61 214.591C223.883 213.224 219.007 212.442 214.09 212.261C204.402 211.955 194.732 213.308 185.5 216.261C176.26 219.091 163.63 223.961 156.9 232.321C155.393 234.154 154.204 236.226 153.38 238.451C151.31 244.071 150.96 248.631 151.69 252.311L152.34 255.651" stroke="black" stroke-width="5.32" stroke-miterlimit="10"/>
<path d="M195.86 213.678V213.648" stroke="black" stroke-width="3.55" stroke-miterlimit="10"/>
<path d="M341.17 868.82C341.087 871.826 339.837 874.681 337.684 876.781C335.532 878.881 332.647 880.061 329.64 880.07H232C229.806 880.073 227.66 879.429 225.83 878.22C225.903 875.222 227.144 872.372 229.289 870.276C231.433 868.18 234.311 867.004 237.31 867H335C337.186 867.019 339.323 867.65 341.17 868.82Z" fill="#D7F0E7"/>
<path d="M341.17 868.82C341.087 871.826 339.837 874.681 337.684 876.781C335.532 878.881 332.647 880.061 329.64 880.07H232C229.806 880.073 227.66 879.429 225.83 878.22C225.903 875.222 227.144 872.372 229.289 870.276C231.433 868.18 234.311 867.004 237.31 867H335C337.186 867.019 339.323 867.65 341.17 868.82Z" fill="#D7F0E7"/>
<path d="M224.41 132.631L246.12 48.181C246.517 46.658 247.225 45.234 248.199 43.999C249.173 42.7628 250.392 41.7422 251.78 41.0008L318.78 5.30078L279.58 159.121L232.33 172.001" stroke="black" stroke-width="5.32" stroke-miterlimit="10"/>
<path d="M207.3 272.44V272.47L204.16 284.98L179.71 285.04L182.91 272.28L182.95 272.25" stroke="black" stroke-width="5.32" stroke-linecap="round" stroke-linejoin="round"/>
<path d="M203.15 192.15L217.73 134.39L234.67 129.93C235.286 129.663 235.949 129.524 236.62 129.52C237.379 129.525 238.126 129.701 238.808 130.033C239.49 130.365 240.089 130.845 240.562 131.438C241.034 132.032 241.368 132.723 241.539 133.462C241.71 134.201 241.714 134.969 241.55 135.71L227.44 192.09" stroke="black" stroke-width="5.32" stroke-linecap="round" stroke-linejoin="round"/>
<path d="M244.6 176.809L239.95 195.819" stroke="black" stroke-width="5.32" stroke-linecap="round" stroke-linejoin="round"/>
<path d="M219.81 278.121L215 297.761" stroke="black" stroke-width="5.32" stroke-linecap="round" stroke-linejoin="round"/>
<path d="M204.16 284.98L215 297.76H190.9L179.71 285.04L204.16 284.98Z" stroke="black" stroke-width="5.32" stroke-linecap="round" stroke-linejoin="round"/>
<path d="M261.098 57.946C261.782 54.512 260.795 51.421 258.893 51.042C256.992 50.664 254.897 53.141 254.213 56.575C253.529 60.009 254.516 63.1 256.418 63.478C258.319 63.857 260.414 61.38 261.098 57.946Z" fill="black"/>
<path d="M341.69 815.808C341.692 828.527 345.465 840.96 352.533 851.534C359.601 862.109 369.645 870.35 381.397 875.216C393.148 880.082 406.078 881.354 418.552 878.871C431.027 876.389 442.485 870.263 451.478 861.269C460.47 852.274 466.594 840.816 469.075 828.341C471.556 815.866 470.282 802.936 465.414 791.186C460.546 779.435 452.303 769.392 441.728 762.326C431.152 755.26 418.719 751.488 406 751.488C397.553 751.486 389.189 753.148 381.384 756.379C373.58 759.611 366.489 764.349 360.517 770.322C354.544 776.295 349.807 783.387 346.577 791.192C343.347 798.997 341.686 807.361 341.69 815.808Z" stroke="black" stroke-width="5.32" stroke-miterlimit="10"/>
<path d="M232 880.102H329.64C336.019 880.102 341.19 874.93 341.19 868.552C341.19 862.173 336.019 857.002 329.64 857.002H232C225.621 857.002 220.45 862.173 220.45 868.552C220.45 874.93 225.621 880.102 232 880.102Z" stroke="black" stroke-width="5.32" stroke-miterlimit="10"/>
<path d="M215.78 467.741C232.98 464.661 249.72 459.741 266.32 454.441C281.9 449.441 297.4 444.121 313.08 439.541C331.7 434.151 350.46 429.121 369.44 425.001C379.09 422.911 388.81 421.061 398.56 419.611C400.05 419.401 401.56 419.181 403.03 419.011C406.54 418.541 410.09 418.121 413.64 417.731C417.19 417.341 420.94 417.021 424.64 416.591C425.074 416.522 425.516 416.522 425.95 416.591C426.187 416.606 426.415 416.681 426.613 416.811C426.812 416.941 426.972 417.12 427.08 417.331C427.164 417.583 427.212 417.846 427.22 418.111C427.9 432.451 437.22 444.821 449.29 452.031C465.99 462.031 489.51 461.781 506.61 452.661C518.88 446.101 525.09 433.511 524.52 419.851C595.82 428.691 676.98 456.211 726.52 509.911L726.73 510.131C740.395 524.841 751.423 541.796 759.33 560.251C782.33 614.731 771.46 682.341 722.86 719.251C698.07 738.091 668.17 750.251 637.62 759.121C616.09 765.441 587.79 768.491 569.62 782.361" stroke="black" stroke-width="5.32" stroke-miterlimit="10"/>
<path d="M507 812.898C506.72 812.838 506.41 812.738 506.12 812.648" stroke="black" stroke-width="5.32" stroke-miterlimit="10"/>
<path d="M604.71 554.609C622.53 565.389 633.79 590.759 639.14 610.019C646.68 637.149 632.01 660.619 612.31 678.089C602.64 686.679 591.93 693.829 581.43 701.319C562.3 714.999 542.77 727.689 521 736.759C517.79 738.099 514.37 737.609 511 736.959C506.74 736.159 502.6 734.789 498.29 734.279C493.49 733.719 489.4 735.399 485.29 737.819C479.124 741.489 473.486 745.98 468.53 751.169L406 751.499C423.056 751.499 439.414 758.275 451.474 770.335C463.534 782.396 470.31 798.753 470.31 815.809C470.31 832.865 463.534 849.223 451.474 861.283C439.414 873.344 423.056 880.119 406 880.119H527.76C539.806 880.119 551.61 876.735 561.826 870.353C572.043 863.971 580.261 854.848 585.545 844.022C590.828 833.196 592.965 821.104 591.71 809.124C590.456 797.143 585.861 785.756 578.45 776.259" stroke="black" stroke-width="5.32" stroke-miterlimit="10"/>
<path d="M423.24 816.92C423.243 819.23 422.79 821.517 421.907 823.652C421.025 825.787 419.73 827.726 418.097 829.36C416.465 830.994 414.526 832.29 412.391 833.173C410.257 834.057 407.97 834.511 405.66 834.51C401.069 834.4 396.702 832.5 393.494 829.214C390.285 825.928 388.489 821.517 388.489 816.925C388.489 812.332 390.285 807.922 393.494 804.636C396.702 801.35 401.069 799.449 405.66 799.34C407.969 799.339 410.256 799.792 412.389 800.675C414.523 801.558 416.461 802.853 418.094 804.486C419.727 806.119 421.021 808.057 421.904 810.191C422.787 812.324 423.241 814.611 423.24 816.92Z" fill="#D7F0E7"/>
<path d="M554.57 787.89C555.581 791.045 556.038 794.35 555.92 797.66C555.866 801.048 555.348 804.413 554.38 807.66C554.06 808.76 553.72 809.83 553.38 810.87C553.22 811.28 553.07 811.65 552.91 812.03C551.944 814.104 551.197 816.272 550.68 818.5C550.27 820.96 550.77 823.28 553.68 824.38C555.221 824.856 556.847 824.986 558.444 824.763C560.04 824.541 561.568 823.969 562.92 823.09C575.56 814.01 573.92 796.48 569.71 782.37C568.77 779.22 567.71 776.24 566.6 773.57" stroke="black" stroke-width="5.32" stroke-miterlimit="10"/>
<path d="M551 816.858C549.3 821.258 546 826.858 542 829.398C542 829.398 541.94 829.398 541.91 829.458C540.125 830.489 538.135 831.113 536.082 831.286C534.028 831.459 531.962 831.176 530.03 830.458C524.72 828.078 526.22 822.798 528.2 818.368C528.83 817.008 529.46 815.758 530 814.688C534.39 805.508 535.29 796.198 534.25 785.578" stroke="black" stroke-width="5.32" stroke-miterlimit="10"/>
<path d="M528.24 818.341C527.18 820.971 522.79 827.531 518.48 829.891C515.26 831.661 510.61 831.561 507.71 829.211C502.1 824.691 505.24 816.471 507.8 811.161C512.22 801.981 514.4 790.571 511.72 780.551" stroke="black" stroke-width="5.32" stroke-miterlimit="10"/>
<path d="M468.61 751.172C476.77 751.172 482.07 751.442 484.61 751.642C485.761 751.715 486.889 751.996 487.94 752.472C506.21 761.282 492.02 794.112 488.14 802.152C486.14 806.362 483.45 815.702 489.65 818.492C491.397 819.135 493.262 819.389 495.117 819.237C496.972 819.085 498.771 818.531 500.39 817.612C503.913 815.389 506.838 812.336 508.91 808.722C508.91 808.722 508.91 808.662 508.97 808.592" stroke="black" stroke-width="5.32" stroke-miterlimit="10"/>
<path d="M662.31 749.328C663.54 791.498 662.57 836.468 657.68 880.498" stroke="black" stroke-width="5.32" stroke-miterlimit="10"/>
<path d="M156.88 880.102H792.69" stroke="black" stroke-width="5.32" stroke-miterlimit="10"/>
<path d="M481.73 356.35C481.73 356.35 492 357.35 499.1 345.5" stroke="black" stroke-width="5.32" stroke-miterlimit="10"/>
<path d="M430.59 198.75C430.59 198.94 509.87 200.64 509.87 200.64L506.06 237.73C506.06 237.73 502.46 242.55 486.87 247.36C471.28 252.17 441.45 255.22 435.97 235.29C432.677 223.378 430.87 211.105 430.59 198.75Z" fill="white"/>
<path d="M504.42 177.552C528.75 169.882 547.62 144.002 534.14 119.102C522.07 96.8021 493.57 91.3621 477.22 112.522C477.22 112.522 459.49 79.4121 429.93 92.4121C417.45 97.9121 407.63 111.042 404.06 124.012C397.16 149.072 413.79 168.512 437.06 174.852C437.06 174.852 459.73 181.092 470.86 165.722C470.86 165.722 476.08 172.152 490.27 174.852" stroke="black" stroke-width="5.32" stroke-miterlimit="10"/>
<path d="M426.49 170.809L436.03 235.709C436.241 237.23 436.768 238.691 437.577 239.996C438.387 241.302 439.461 242.423 440.73 243.289C448.47 248.439 467.5 256.489 499.73 242.789C501.574 241.999 503.174 240.731 504.363 239.115C505.551 237.499 506.286 235.594 506.49 233.599L512.59 174.179" stroke="black" stroke-width="5.32" stroke-miterlimit="10"/>
<path d="M550 821.29C549.82 817.64 552.83 812.07 552.83 812.07C552.35 815.267 551.396 818.374 550 821.29Z" fill="#2E2E2E"/>
<path d="M631.26 588.352L634.63 590.622L632.32 590.402C631.65 589.062 631.26 588.352 631.26 588.352Z" fill="#2E2E2E"/>
<path d="M489.65 818.49C485.75 817.35 485.11 813.59 486.18 808.27C485.68 812.67 486.53 816.15 489.65 818.49Z" fill="black"/>
<path d="M488.06 752.551C489.425 753.28 490.689 754.184 491.82 755.241C490.47 754.181 489.12 753.331 488.06 752.551Z" fill="black"/>
<path d="M496.22 778.262C497.048 775.661 497.594 772.979 497.85 770.262C497.715 772.996 497.166 775.693 496.22 778.262Z" fill="black"/>
<path d="M503.52 817.099C502.081 817.79 500.572 818.327 499.02 818.699C501 817.639 502.56 816.459 503.52 817.099Z" fill="black"/>
<path d="M504.62 821.288C504.73 825.118 505.9 827.708 507.71 829.198C503.77 827.318 503.71 823.588 504.55 820.398C504.594 820.693 504.618 820.99 504.62 821.288Z" fill="black"/>
<path d="M521.54 827.601C522.5 826.782 523.647 826.212 524.88 825.941C523.262 827.066 521.537 828.027 519.73 828.811C520.357 828.445 520.962 828.041 521.54 827.601Z" fill="black"/>
<path d="M532.43 831.11C528.85 831.4 528.14 829.31 527.93 827.43C529.13 829 530.09 831.11 532.43 831.11Z" fill="black"/>
<path d="M548.39 823.91C547.834 824.731 547.194 825.492 546.48 826.18C546.847 825.233 547.519 824.434 548.39 823.91Z" fill="black"/>
<path d="M551.34 823.91C551.98 824.06 552.72 824.23 553.61 824.41C552.818 824.522 552.012 824.344 551.34 823.91Z" fill="black"/>
<path d="M578.76 777.872C575.85 779.262 573.47 780.432 571.91 781.212C572.088 780.811 572.371 780.465 572.73 780.212C574.36 779.222 576.38 777.452 578.76 777.872Z" fill="black"/>
<path d="M526.4 821.681C526.37 822.149 526.251 822.607 526.05 823.031C526 821.251 526.44 820.261 526.4 821.681Z" fill="#D7F0E7"/>
<path d="M69.0001 296.388L12.0001 300.998C10.9055 301.086 9.80425 300.957 8.75955 300.619C7.71475 300.281 6.74685 299.74 5.91115 299.028C5.07535 298.316 4.38806 297.446 3.88866 296.468C3.38916 295.49 3.08716 294.423 3.00006 293.328C2.82586 291.12 3.53436 288.933 4.97016 287.246C6.40606 285.558 8.45216 284.509 10.6601 284.328L71.3201 279.398" stroke="#CCE2DB" stroke-width="5.32" stroke-miterlimit="10"/>
<path d="M77.8701 278.871H77.8401" stroke="#CCE2DB" stroke-width="5.32" stroke-miterlimit="10"/>
<path d="M313.27 281.771C321.482 281.771 328.14 275.114 328.14 266.901C328.14 258.689 321.482 252.031 313.27 252.031C305.058 252.031 298.4 258.689 298.4 266.901C298.4 275.114 305.058 281.771 313.27 281.771Z" stroke="#CCE2DB" stroke-width="5.32" stroke-miterlimit="10"/>
<path d="M814.09 878.059V590.629H886.84C892.572 608.075 896.657 626.02 899.04 644.229C910.21 731.059 902.37 860.359 814.09 878.059Z" stroke="#CCE2DB" stroke-width="5.32" stroke-miterlimit="10"/>
<path d="M814.09 682.391H902.74" stroke="#CCE2DB" stroke-width="5.32" stroke-miterlimit="10"/>
<path d="M814.09 766.922H898.1" stroke="#CCE2DB" stroke-width="5.32" stroke-miterlimit="10"/>
</svg>
